<svg width="38" height="38" viewBox="0 0 38 38" fill="none" xmlns="http://www.w3.org/2000/svg">
<rect width="38" height="38" rx="19" fill="white"/>
<path d="M17.875 25C17.875 25.2984 17.9935 25.5845 18.2045 25.7955C18.4155 26.0065 18.7016 26.125 19 26.125C19.2984 26.125 19.5845 26.0065 19.7955 25.7955C20.0065 25.5845 20.125 25.2984 20.125 25V20.125H25C25.2984 20.125 25.5845 20.0065 25.7955 19.7955C26.0065 19.5845 26.125 19.2984 26.125 19C26.125 18.7016 26.0065 18.4155 25.7955 18.2045C25.5845 17.9935 25.2984 17.875 25 17.875H20.125V13C20.125 12.7016 20.0065 12.4155 19.7955 12.2045C19.5845 11.9935 19.2984 11.875 19 11.875C18.7016 11.875 18.4155 11.9935 18.2045 12.2045C17.9935 12.4155 17.875 12.7016 17.875 13V17.875H13C12.7016 17.875 12.4155 17.9935 12.2045 18.2045C11.9935 18.4155 11.875 18.7016 11.875 19C11.875 19.2984 11.9935 19.5845 12.2045 19.7955C12.4155 20.0065 12.7016 20.125 13 20.125H17.875V25Z" fill="#1C274D"/>
</svg>
