<svg width="22" height="22" viewBox="0 0 22 22" fill="none" xmlns="http://www.w3.org/2000/svg">
<path d="M10.943 0.25C8.634 0.25 6.825 0.25 5.413 0.44C3.969 0.634 2.829 1.04 1.934 1.934C1.039 2.829 0.634 3.969 0.44 5.414C0.25 6.825 0.25 8.634 0.25 10.943V11.057C0.25 13.366 0.25 15.175 0.44 16.587C0.634 18.031 1.04 19.171 1.934 20.066C2.829 20.961 3.969 21.366 5.414 21.56C6.825 21.75 8.634 21.75 10.943 21.75H11.057C13.366 21.75 15.175 21.75 16.587 21.56C18.031 21.366 19.171 20.96 20.066 20.066C20.961 19.171 21.366 18.031 21.56 16.586C21.75 15.175 21.75 13.366 21.75 11.057V9.5C21.75 9.30109 21.671 9.11032 21.5303 8.96967C21.3897 8.82902 21.1989 8.75 21 8.75C20.8011 8.75 20.6103 8.82902 20.4697 8.96967C20.329 9.11032 20.25 9.30109 20.25 9.5V11C20.25 13.378 20.248 15.086 20.074 16.386C19.902 17.665 19.574 18.436 19.005 19.006C18.435 19.575 17.665 19.902 16.386 20.074C15.086 20.248 13.378 20.25 11 20.25C8.622 20.25 6.914 20.248 5.614 20.074C4.335 19.902 3.564 19.574 2.994 19.005C2.425 18.435 2.098 17.665 1.926 16.386C1.752 15.086 1.75 13.378 1.75 11C1.75 8.622 1.752 6.914 1.926 5.614C2.098 4.335 2.426 3.564 2.995 2.994C3.565 2.425 4.335 2.098 5.614 1.926C6.914 1.752 8.622 1.75 11 1.75H12.5C12.6989 1.75 12.8897 1.67098 13.0303 1.53033C13.171 1.38968 13.25 1.19891 13.25 1C13.25 0.801088 13.171 0.610322 13.0303 0.46967C12.8897 0.329018 12.6989 0.25 12.5 0.25H10.943Z" fill="white"/>
<path fill-rule="evenodd" clip-rule="evenodd" d="M18 0.25C17.0054 0.25 16.0516 0.645088 15.3483 1.34835C14.6451 2.05161 14.25 3.00544 14.25 4C14.25 4.99456 14.6451 5.94839 15.3483 6.65165C16.0516 7.35491 17.0054 7.75 18 7.75C18.9946 7.75 19.9484 7.35491 20.6517 6.65165C21.3549 5.94839 21.75 4.99456 21.75 4C21.75 3.00544 21.3549 2.05161 20.6517 1.34835C19.9484 0.645088 18.9946 0.25 18 0.25ZM15.75 4C15.75 3.40326 15.9871 2.83097 16.409 2.40901C16.831 1.98705 17.4033 1.75 18 1.75C18.5967 1.75 19.169 1.98705 19.591 2.40901C20.0129 2.83097 20.25 3.40326 20.25 4C20.25 4.59674 20.0129 5.16903 19.591 5.59099C19.169 6.01295 18.5967 6.25 18 6.25C17.4033 6.25 16.831 6.01295 16.409 5.59099C15.9871 5.16903 15.75 4.59674 15.75 4Z" fill="white"/>
<path d="M5.25 13C5.25 12.8011 5.32902 12.6103 5.46967 12.4697C5.61032 12.329 5.80109 12.25 6 12.25H15C15.1989 12.25 15.3897 12.329 15.5303 12.4697C15.671 12.6103 15.75 12.8011 15.75 13C15.75 13.1989 15.671 13.3897 15.5303 13.5303C15.3897 13.671 15.1989 13.75 15 13.75H6C5.80109 13.75 5.61032 13.671 5.46967 13.5303C5.32902 13.3897 5.25 13.1989 5.25 13ZM6 15.75C5.80109 15.75 5.61032 15.829 5.46967 15.9697C5.32902 16.1103 5.25 16.3011 5.25 16.5C5.25 16.6989 5.32902 16.8897 5.46967 17.0303C5.61032 17.171 5.80109 17.25 6 17.25H12C12.1989 17.25 12.3897 17.171 12.5303 17.0303C12.671 16.8897 12.75 16.6989 12.75 16.5C12.75 16.3011 12.671 16.1103 12.5303 15.9697C12.3897 15.829 12.1989 15.75 12 15.75H6Z" fill="white"/>
</svg>
