<svg width="20" height="22" viewBox="0 0 20 22" fill="none" xmlns="http://www.w3.org/2000/svg">
<path d="M1.33333 5.58333H18.6667M7.83333 9.91667V16.4167M12.1667 9.91667V16.4167M2.41667 5.58333L3.5 18.5833C3.5 19.158 3.72827 19.7091 4.1346 20.1154C4.54093 20.5217 5.09203 20.75 5.66667 20.75H14.3333C14.908 20.75 15.4591 20.5217 15.8654 20.1154C16.2717 19.7091 16.5 19.158 16.5 18.5833L17.5833 5.58333M6.75 5.58333V2.33333C6.75 2.04602 6.86414 1.77047 7.0673 1.5673C7.27046 1.36414 7.54601 1.25 7.83333 1.25H12.1667C12.454 1.25 12.7295 1.36414 12.9327 1.5673C13.1359 1.77047 13.25 2.04602 13.25 2.33333V5.58333" stroke="white" stroke-width="2" stroke-linecap="round" stroke-linejoin="round"/>
</svg>
