<svg width="27" height="27" viewBox="0 0 27 27" fill="none" xmlns="http://www.w3.org/2000/svg">
<rect width="27" height="27" rx="13.5" fill="white"/>
<path fill-rule="evenodd" clip-rule="evenodd" d="M13.5 7.25L13.2844 7.45625L13.2831 7.4575L13.2803 7.46L13.2703 7.47L13.2322 7.50719C13.1989 7.5399 13.1514 7.58729 13.0897 7.64937C12.359 8.3952 11.6811 9.19097 11.0609 10.0309C9.96281 11.525 8.8125 13.5256 8.8125 15.4C8.8125 17.8266 10.9362 19.75 13.5 19.75C16.0638 19.75 18.1875 17.8266 18.1875 15.4C18.1875 13.525 17.0372 11.5247 15.9391 10.0313C15.3189 9.19118 14.641 8.3953 13.9103 7.64937C13.8507 7.589 13.7905 7.52921 13.7297 7.47L13.7197 7.46L13.7166 7.4575L13.7156 7.45625L13.5 7.25ZM10.8328 15.8122C10.8201 15.7732 10.7998 15.737 10.7731 15.7058C10.7464 15.6746 10.7139 15.649 10.6773 15.6304C10.6407 15.6118 10.6008 15.6006 10.5599 15.5974C10.5189 15.5942 10.4778 15.5992 10.4387 15.6119C10.3997 15.6246 10.3636 15.6449 10.3324 15.6716C10.3012 15.6983 10.2756 15.7308 10.257 15.7674C10.2384 15.804 10.2272 15.8439 10.224 15.8848C10.2208 15.9258 10.2257 15.9669 10.2384 16.0059C10.4726 16.7292 10.9294 17.3599 11.5437 17.8078C12.1573 18.2551 12.897 18.4961 13.6562 18.4963C13.8288 18.4963 13.9688 18.3559 13.9688 18.1828C13.9688 18.0097 13.8288 17.8694 13.6562 17.8694C13.0291 17.8689 12.4182 17.6698 11.9113 17.3006C11.4038 16.9305 11.0263 16.4097 10.8328 15.8122Z" fill="url(#paint0_linear_416_208)"/>
<path d="M16.3814 12.0722C16.3928 12.0252 16.4191 11.983 16.4563 11.9521C16.4936 11.9211 16.5398 11.903 16.5881 11.9005C16.6365 11.8979 16.6844 11.911 16.7247 11.9378C16.765 11.9646 16.7956 12.0037 16.8119 12.0493L17.4274 13.7749C17.6466 13.7746 17.7856 13.7341 17.9329 13.6237C17.9762 13.57 18.0283 13.5241 18.0871 13.4881L18.1002 13.4749V13.4802C18.1914 13.4276 18.2949 13.3999 18.4002 13.3999C18.5055 13.4 18.6089 13.4277 18.7001 13.4804C18.7913 13.533 18.867 13.6088 18.9196 13.7C18.9723 13.7912 19 13.8946 19 13.9999C19 14.1052 18.9723 14.2087 18.9196 14.2999C18.867 14.3911 18.7913 14.4668 18.7001 14.5195C18.6089 14.5722 18.5055 14.5999 18.4002 14.6C18.2949 14.6 18.1914 14.5723 18.1002 14.5197V14.525L18.0868 14.5118C18.0313 14.4777 17.9818 14.4348 17.9401 14.3852C17.8036 14.2862 17.6754 14.2524 17.4855 14.2469H17.2764C17.23 14.2468 17.1847 14.2325 17.1468 14.2057C17.1089 14.179 17.0801 14.1411 17.0646 14.0974L16.642 12.9124L15.9163 15.9277C15.9049 15.9749 15.8785 16.0171 15.8411 16.0481C15.8037 16.0791 15.7572 16.0972 15.7087 16.0996C15.6602 16.102 15.6122 16.0886 15.5719 16.0615C15.5316 16.0344 15.5012 15.995 15.4851 15.9491L14.6378 13.5223L14.4095 14.104C14.3929 14.1461 14.3641 14.1823 14.3268 14.2077C14.2894 14.2332 14.2453 14.2468 14.2 14.2469H13V13.7968H14.0466L14.4407 12.7927C14.4575 12.7499 14.487 12.7134 14.5252 12.6879C14.5634 12.6624 14.6085 12.6492 14.6544 12.6501C14.7003 12.6509 14.7449 12.6659 14.7821 12.6928C14.8193 12.7197 14.8473 12.7574 14.8625 12.8008L15.6578 15.0786L16.3814 12.0722Z" fill="url(#paint1_linear_416_208)"/>
<defs>
<linearGradient id="paint0_linear_416_208" x1="13.5" y1="7.25" x2="13.5" y2="19.75" gradientUnits="userSpaceOnUse">
<stop offset="0.575" stop-color="#D40000"/>
<stop offset="1" stop-color="#EAEAEA"/>
</linearGradient>
<linearGradient id="paint1_linear_416_208" x1="16" y1="11.9001" x2="16" y2="16.0999" gradientUnits="userSpaceOnUse">
<stop stop-color="#D40000"/>
<stop offset="0.0001" stop-color="white"/>
</linearGradient>
</defs>
</svg>
