<svg width="35" height="35" viewBox="0 0 35 35" fill="none" xmlns="http://www.w3.org/2000/svg">
<rect width="35" height="35" rx="17.5" fill="#DFDFDF"/>
<path d="M28 18C28 14.229 28 12.343 26.828 11.172C25.656 10.001 23.771 10 20 10H16C12.229 10 10.343 10 9.172 11.172C8.001 12.344 8 14.229 8 18C8 21.771 8 23.657 9.172 24.828C10.344 25.999 12.229 26 16 26H20C23.771 26 25.657 26 26.828 24.828C27.482 24.175 27.771 23.3 27.898 22M16 22H12M20 22H18.5M8 16H13M28 16H17" stroke="#464646" stroke-width="1.5" stroke-linecap="round"/>
</svg>
