<svg width="18" height="18" viewBox="0 0 18 18" fill="none" xmlns="http://www.w3.org/2000/svg">
<path d="M8.99992 7.5V12M6.74992 9.75H11.2499M1.76317 9.9105C1.49842 8.187 1.36567 7.326 1.69192 6.56175C2.01742 5.79825 2.74042 5.2755 4.18567 4.23075L5.26567 3.45C7.06342 2.15025 7.96267 1.5 8.99992 1.5C10.0372 1.5 10.9364 2.15025 12.7342 3.45L13.8142 4.23075C15.2594 5.2755 15.9817 5.79825 16.3079 6.56175C16.6334 7.326 16.5014 8.187 16.2367 9.90975L16.0109 11.3797C15.6359 13.8217 15.4477 15.0427 14.5717 15.7717C13.6957 16.5007 12.4154 16.5 9.85417 16.5H8.14492C5.58367 16.5 4.30342 16.5 3.42742 15.7717C2.55142 15.0427 2.36392 13.8217 1.98817 11.379L1.76317 9.9105Z" stroke="black" stroke-width="1.5" stroke-linecap="round" stroke-linejoin="round"/>
</svg>
