<svg width="18" height="18" viewBox="0 0 18 18" fill="none" xmlns="http://www.w3.org/2000/svg">
<path d="M5.64171 7.23836H12.3584M5.64171 10.7617H10.4317M9.00004 16.7084C10.6745 16.708 12.3034 16.1624 13.6402 15.154C14.977 14.1457 15.9492 12.7295 16.4096 11.1195C16.87 9.50956 16.7937 7.79347 16.1921 6.23078C15.5905 4.66808 14.4965 3.34376 13.0754 2.45812C11.6543 1.57247 9.98341 1.17366 8.3155 1.322C6.6476 1.47035 5.07335 2.15777 3.83086 3.28032C2.58836 4.40286 1.74518 5.89947 1.42885 7.54381C1.11251 9.18815 1.34022 10.8908 2.07754 12.3942C2.16754 12.5775 2.19754 12.7842 2.15171 12.9825L1.47171 15.9292C1.45254 16.0119 1.45473 16.0981 1.4781 16.1797C1.50146 16.2613 1.54521 16.3356 1.60524 16.3957C1.66526 16.4557 1.73958 16.4994 1.82119 16.5228C1.9028 16.5462 1.98901 16.5484 2.07171 16.5292L5.01754 15.8484C5.21643 15.8048 5.42427 15.8313 5.60587 15.9234C6.66203 16.442 7.8234 16.7106 9.00004 16.7084Z" stroke="black" stroke-width="1.5" stroke-linecap="round" stroke-linejoin="round"/>
</svg>
