<svg width="19" height="17" viewBox="0 0 19 17" fill="none" xmlns="http://www.w3.org/2000/svg">
<path d="M9.40625 2.59508L8.93375 3.05008C8.99497 3.11359 9.06836 3.16411 9.14954 3.19862C9.23073 3.23313 9.31804 3.25091 9.40625 3.25091C9.49446 3.25091 9.58177 3.23313 9.66295 3.19862C9.74414 3.16411 9.81753 3.11359 9.87875 3.05008L9.40625 2.59508ZM7.154 13.8143C5.8275 12.7687 4.37762 11.7476 3.227 10.4526C2.1 9.18208 1.3125 7.70071 1.3125 5.77746H0C0 8.11021 0.97125 9.88996 2.24612 11.3241C3.49737 12.7328 5.09337 13.8616 6.34112 14.8451L7.154 13.8143ZM1.3125 5.77746C1.3125 3.89621 2.37562 2.31771 3.82725 1.65358C5.23775 1.00871 7.133 1.17933 8.93375 3.05008L9.87875 2.14096C7.74375 -0.0789193 5.26225 -0.445544 3.28125 0.460081C1.344 1.34646 0 3.40446 0 5.77746H1.3125ZM6.34112 14.8451C6.79 15.1986 7.27125 15.5748 7.75862 15.8601C8.246 16.1453 8.8025 16.3763 9.40625 16.3763V15.0638C9.135 15.0638 8.8165 14.9588 8.421 14.727C8.02462 14.496 7.61425 14.1775 7.154 13.8143L6.34112 14.8451ZM12.4714 14.8451C13.7191 13.8607 15.3151 12.7337 16.5664 11.3241C17.8412 9.88908 18.8125 8.11021 18.8125 5.77746H17.5C17.5 7.70071 16.7125 9.18208 15.5855 10.4526C14.4349 11.7476 12.985 12.7687 11.6585 13.8143L12.4714 14.8451ZM18.8125 5.77746C18.8125 3.40446 17.4694 1.34646 15.5312 0.460081C13.5502 -0.445544 11.0705 -0.0789193 8.93375 2.14008L9.87875 3.05008C11.6795 1.18021 13.5747 1.00871 14.9852 1.65358C16.4369 2.31771 17.5 3.89533 17.5 5.77746H18.8125ZM11.6585 13.8143C11.1982 14.1775 10.7879 14.496 10.3915 14.727C9.99512 14.958 9.6775 15.0638 9.40625 15.0638V16.3763C10.01 16.3763 10.5665 16.1445 11.0539 15.8601C11.5421 15.5748 12.0225 15.1986 12.4714 14.8451L11.6585 13.8143Z" fill="black"/>
</svg>
