<svg width="14" height="14" viewBox="0 0 14 14" fill="none" xmlns="http://www.w3.org/2000/svg">
<path d="M1.5 3C1.5 2.60218 1.65804 2.22064 1.93934 1.93934C2.22064 1.65804 2.60218 1.5 3 1.5H4.5C4.89782 1.5 5.27936 1.65804 5.56066 1.93934C5.84196 2.22064 6 2.60218 6 3V4.5C6 4.89782 5.84196 5.27936 5.56066 5.56066C5.27936 5.84196 4.89782 6 4.5 6H3C2.60218 6 2.22064 5.84196 1.93934 5.56066C1.65804 5.27936 1.5 4.89782 1.5 4.5V3ZM1.5 9.5C1.5 9.10218 1.65804 8.72064 1.93934 8.43934C2.22064 8.15804 2.60218 8 3 8H4.5C4.89782 8 5.27936 8.15804 5.56066 8.43934C5.84196 8.72064 6 9.10218 6 9.5V11C6 11.3978 5.84196 11.7794 5.56066 12.0607C5.27936 12.342 4.89782 12.5 4.5 12.5H3C2.60218 12.5 2.22064 12.342 1.93934 12.0607C1.65804 11.7794 1.5 11.3978 1.5 11V9.5ZM8 3C8 2.60218 8.15804 2.22064 8.43934 1.93934C8.72064 1.65804 9.10218 1.5 9.5 1.5H11C11.3978 1.5 11.7794 1.65804 12.0607 1.93934C12.342 2.22064 12.5 2.60218 12.5 3V4.5C12.5 4.89782 12.342 5.27936 12.0607 5.56066C11.7794 5.84196 11.3978 6 11 6H9.5C9.10218 6 8.72064 5.84196 8.43934 5.56066C8.15804 5.27936 8 4.89782 8 4.5V3ZM8 9.5C8 9.10218 8.15804 8.72064 8.43934 8.43934C8.72064 8.15804 9.10218 8 9.5 8H11C11.3978 8 11.7794 8.15804 12.0607 8.43934C12.342 8.72064 12.5 9.10218 12.5 9.5V11C12.5 11.3978 12.342 11.7794 12.0607 12.0607C11.7794 12.342 11.3978 12.5 11 12.5H9.5C9.10218 12.5 8.72064 12.342 8.43934 12.0607C8.15804 11.7794 8 11.3978 8 11V9.5Z" stroke="white" stroke-width="1.5" stroke-linecap="round" stroke-linejoin="round"/>
</svg>
