<svg width="18" height="19" viewBox="0 0 18 19" fill="none" xmlns="http://www.w3.org/2000/svg">
<path fill-rule="evenodd" clip-rule="evenodd" d="M5.32449 2.66297L5.35199 2.54297C5.40449 2.31997 5.49049 1.99197 5.66799 1.66897C5.84899 1.33997 6.12949 1.00647 6.56949 0.786966C7.00799 0.568466 7.55749 0.486966 8.23699 0.576966C8.98699 0.676966 10.4935 0.924966 11.8245 1.60197C13.163 2.28297 14.417 3.45447 14.417 5.40547C14.417 6.41347 14.027 7.49497 13.649 8.19997C13.4675 8.53897 13.252 8.86297 13.036 9.03747C12.9865 9.07747 12.916 9.12747 12.8285 9.16247C12.5885 9.95125 12.1107 10.6466 11.4605 11.1536C10.8103 11.6605 10.0193 11.9543 9.19583 11.9947C8.37233 12.035 7.55645 11.8201 6.85975 11.3792C6.16305 10.9383 5.61953 10.293 5.30349 9.53147L5.29149 9.53347L5.11399 9.31797L5.11349 9.31697L5.11249 9.31597L5.10999 9.31247L5.10149 9.30247C5.05874 9.24918 5.01756 9.19466 4.97799 9.13897C4.87027 8.98905 4.76853 8.83493 4.67299 8.67697C4.43799 8.28797 4.15449 7.73397 3.97299 7.08747C3.79199 6.44097 3.70899 5.68297 3.89899 4.90097C4.08399 4.13997 4.52049 3.39097 5.31099 2.72197L5.32449 2.66297ZM6.16449 8.98197C6.38135 9.60559 6.79777 10.1403 7.34928 10.5033C7.90078 10.8663 8.55659 11.0373 9.21513 10.9899C9.87367 10.9425 10.4982 10.6792 10.992 10.2409C11.4858 9.80261 11.8213 9.21373 11.9465 8.56547L12.003 8.58447C12.0008 8.55619 11.9998 8.52783 12 8.49947C12 7.67197 11.885 7.09447 11.778 6.73447C11.757 6.66442 11.7338 6.59506 11.7085 6.52647L11.688 6.52747H11.668C11.2941 6.53549 10.9203 6.50702 10.552 6.44247C9.69349 6.29747 8.53099 5.93547 7.16199 5.09697C7.13199 5.16397 7.10199 5.23947 7.07199 5.32347C6.97399 5.60097 6.89349 5.93047 6.82399 6.27847C6.76249 6.58497 6.71199 6.89347 6.66399 7.18247L6.64549 7.29647C6.59399 7.60647 6.54249 7.91097 6.48249 8.13147C6.37749 8.51447 6.27049 8.78647 6.16449 8.98147M5.46449 8.04997C5.23889 7.6622 5.06157 7.2483 4.93649 6.81747C4.78699 6.28447 4.73199 5.70747 4.87099 5.13697C5.00599 4.58197 5.33249 3.99847 6.00399 3.44547C6.12499 3.36347 6.17999 3.25347 6.19499 3.22397V3.22347C6.22101 3.16931 6.2421 3.11291 6.25799 3.05497C6.27399 2.99797 6.29149 2.91997 6.30799 2.84997L6.32549 2.77147C6.37299 2.56997 6.43449 2.35047 6.54449 2.14997C6.65149 1.95597 6.79799 1.78997 7.01599 1.68147C7.23499 1.57197 7.57399 1.49697 8.10499 1.56797C8.83149 1.66447 10.198 1.89597 11.371 2.49297C12.536 3.08547 13.417 3.98247 13.417 5.40497C13.417 6.05997 13.197 6.80497 12.932 7.39247C12.882 7.00947 12.81 6.69647 12.736 6.44847C12.6839 6.2714 12.6195 6.09815 12.5435 5.92997C12.5143 5.86785 12.4827 5.80697 12.4485 5.74747L12.44 5.73397L12.437 5.72897L12.4355 5.72647L12.4345 5.72497L12.2495 5.43797L11.9185 5.50447L11.9115 5.50597L11.863 5.51247C11.7886 5.52082 11.7138 5.52582 11.639 5.52747C11.3307 5.53338 11.0226 5.50927 10.719 5.45547C9.91249 5.31947 8.72749 4.94897 7.28799 3.99047L6.93799 3.75697L6.64849 4.06197C6.40999 4.31297 6.24799 4.65547 6.12949 4.98897C6.00849 5.33147 5.91699 5.71397 5.84349 6.08097C5.78252 6.39328 5.72718 6.70666 5.67749 7.02097L5.65849 7.13297C5.60499 7.45847 5.56149 7.70697 5.51749 7.86797C5.49949 7.9343 5.48183 7.99497 5.46449 8.04997Z" fill="url(#paint0_linear_87_133)"/>
<path fill-rule="evenodd" clip-rule="evenodd" d="M5.957 12.4268C5.851 12.2158 5.7205 11.9553 5.5 12.0058C2.798 12.6208 0 14.3963 0 16.2843V18.9993H18V16.2843C18 14.7973 16.264 13.3798 14.2065 12.5443L14.204 12.5393L14.197 12.5258L14.1805 12.5338C13.634 12.3138 13.065 12.1338 12.5 12.0058C12.2485 11.9483 11.9885 12.2943 11.875 12.5108H6L5.957 12.4268ZM12.7015 13.0868C12.9202 13.1475 13.137 13.2153 13.352 13.2903C13.358 13.4613 13.345 13.6633 13.317 13.8693C13.2887 14.0826 13.2432 14.2933 13.181 14.4993H12.5C12.4072 14.4994 12.3162 14.5252 12.2372 14.5741C12.1583 14.6229 12.0945 14.6928 12.053 14.7758L11.553 15.7758C11.5182 15.8452 11.5001 15.9217 11.5 15.9993V16.9993C11.5 17.1319 11.5527 17.2591 11.6464 17.3529C11.7402 17.4466 11.8674 17.4993 12 17.4993H13V16.4993H12.5V16.1173L12.809 15.4993H14.191L14.5 16.1173V16.4993H14V17.4993H15C15.1326 17.4993 15.2598 17.4466 15.3536 17.3529C15.4473 17.2591 15.5 17.1319 15.5 16.9993V15.9993C15.4999 15.9217 15.4818 15.8452 15.447 15.7758L14.947 14.7758C14.9055 14.6928 14.8417 14.6229 14.7628 14.5741C14.6838 14.5252 14.5928 14.4994 14.5 14.4993H14.217C14.2781 14.2346 14.3196 13.9657 14.341 13.6948C14.8285 13.9253 15.2815 14.1898 15.674 14.4758C16.635 15.1768 17 15.8328 17 16.2843V17.9993H1V16.2843C1 15.8328 1.365 15.1768 2.326 14.4758C2.809 14.1233 3.3855 13.8043 4.0035 13.5403C4.02076 13.9387 4.0847 14.3338 4.194 14.7173L4.198 14.7313C3.89908 14.9204 3.67661 15.2091 3.56987 15.5463C3.46313 15.8835 3.47899 16.2476 3.61466 16.5743C3.75033 16.9009 3.99707 17.1691 4.3113 17.3315C4.62554 17.4939 4.98705 17.54 5.33198 17.4617C5.67692 17.3834 5.98309 17.1858 6.19642 16.9036C6.40975 16.6215 6.51651 16.273 6.49785 15.9198C6.47919 15.5666 6.33631 15.2313 6.09443 14.9732C5.85256 14.7151 5.52727 14.5508 5.176 14.5093L5.154 14.4373C5.10114 14.2511 5.06187 14.0612 5.0365 13.8693C5.00847 13.6755 4.99676 13.4796 5.0015 13.2838C5.00317 13.2418 5.00567 13.2045 5.009 13.1718C5.069 13.1531 5.129 13.1353 5.189 13.1183L5.3965 13.5113H12.4785L12.7015 13.0868ZM5 16.5073C5.269 16.5073 5.5 16.2873 5.5 15.9998C5.5 15.7128 5.269 15.4923 5 15.4923C4.731 15.4923 4.5 15.7123 4.5 15.9998C4.5 16.2868 4.731 16.5073 5 16.5073Z" fill="url(#paint1_linear_87_133)"/>
<defs>
<linearGradient id="paint0_linear_87_133" x1="9.10391" y1="0.540894" x2="9.10391" y2="11.9995" gradientUnits="userSpaceOnUse">
<stop offset="0.3" stop-color="#3C3F64"/>
<stop offset="0.94" stop-color="#6A6A6A"/>
</linearGradient>
<linearGradient id="paint1_linear_87_133" x1="9" y1="11.9995" x2="9" y2="18.9993" gradientUnits="userSpaceOnUse">
<stop offset="0.3" stop-color="#3C3F64"/>
<stop offset="0.94" stop-color="#6A6A6A"/>
</linearGradient>
</defs>
</svg>
