<svg width="68" height="68" viewBox="0 0 68 68" fill="none" xmlns="http://www.w3.org/2000/svg">
<g filter="url(#filter0_d_946_214)">
<rect x="14" y="10" width="40" height="40" rx="20" fill="#DADADA" fill-opacity="0.1" shape-rendering="crispEdges"/>
<path opacity="0.5" fill-rule="evenodd" clip-rule="evenodd" d="M36.2791 20.152C35.9091 20 35.4391 20 34.5001 20C33.5611 20 33.0921 20 32.7211 20.152C32.477 20.2517 32.255 20.3988 32.0679 20.5846C31.8809 20.7705 31.7324 20.9915 31.6311 21.235C31.5371 21.458 31.5011 21.719 31.4861 22.098C31.4789 22.3725 31.4021 22.6407 31.2629 22.8774C31.1237 23.114 30.9265 23.3114 30.6901 23.451C30.4488 23.5851 30.1776 23.6561 29.9016 23.6575C29.6256 23.6589 29.3537 23.5907 29.1111 23.459C28.7731 23.281 28.5281 23.183 28.2861 23.151C27.7567 23.0819 27.2213 23.2242 26.7961 23.547C26.4781 23.789 26.2431 24.193 25.7741 25C25.3041 25.807 25.0701 26.21 25.0171 26.605C24.9471 27.131 25.0911 27.663 25.4171 28.084C25.5651 28.276 25.7741 28.437 26.0971 28.639C26.5741 28.936 26.8801 29.442 26.8801 30C26.8801 30.558 26.5741 31.064 26.0981 31.36C25.7741 31.563 25.5651 31.724 25.4161 31.916C25.2556 32.1242 25.1378 32.362 25.0694 32.6158C25.0009 32.8696 24.9831 33.1343 25.0171 33.395C25.0701 33.789 25.3041 34.193 25.7741 35C26.2441 35.807 26.4781 36.21 26.7961 36.453C27.2201 36.776 27.7561 36.918 28.2861 36.849C28.5281 36.817 28.7731 36.719 29.1111 36.541C29.3538 36.4092 29.6259 36.3408 29.9021 36.3422C30.1783 36.3436 30.4497 36.4147 30.6911 36.549C31.1771 36.829 31.4651 37.344 31.4861 37.902C31.5011 38.282 31.5371 38.542 31.6311 38.765C31.8351 39.255 32.2271 39.645 32.7211 39.848C33.0911 40 33.5611 40 34.5001 40C35.4391 40 35.9091 40 36.2791 39.848C36.5232 39.7483 36.7452 39.6012 36.9322 39.4154C37.1193 39.2295 37.2678 39.0085 37.3691 38.765C37.4631 38.542 37.4991 38.282 37.5141 37.902C37.5341 37.344 37.8231 36.828 38.3101 36.549C38.5513 36.4149 38.8225 36.3439 39.0985 36.3425C39.3746 36.3411 39.6465 36.4093 39.8891 36.541C40.2271 36.719 40.4721 36.817 40.7141 36.849C41.2441 36.919 41.7801 36.776 42.2041 36.453C42.5221 36.211 42.7571 35.807 43.2261 35C43.6961 34.193 43.9301 33.79 43.9831 33.395C44.0169 33.1343 43.9989 32.8695 43.9303 32.6157C43.8617 32.3619 43.7437 32.1241 43.5831 31.916C43.4351 31.724 43.2261 31.563 42.9031 31.361C42.4261 31.064 42.1201 30.558 42.1201 30C42.1201 29.442 42.4261 28.936 42.9021 28.64C43.2261 28.437 43.4351 28.276 43.5841 28.084C43.7445 27.8758 43.8623 27.638 43.9308 27.3842C43.9992 27.1304 44.017 26.8657 43.9831 26.605C43.9301 26.211 43.6961 25.807 43.2261 25C42.7561 24.193 42.5221 23.79 42.2041 23.547C41.7788 23.2242 41.2435 23.0819 40.7141 23.151C40.4721 23.183 40.2271 23.281 39.8891 23.459C39.6463 23.5908 39.3743 23.6592 39.098 23.6578C38.8218 23.6564 38.5504 23.5853 38.3091 23.451C38.0728 23.3113 37.8759 23.1139 37.7368 22.8772C37.5977 22.6405 37.5211 22.3724 37.5141 22.098C37.4991 21.718 37.4631 21.458 37.3691 21.235C37.2678 20.9915 37.1193 20.7705 36.9322 20.5846C36.7452 20.3988 36.5232 20.2517 36.2791 20.152Z" fill="black"/>
<path d="M37.5231 30C37.5231 31.657 36.1691 33 34.5001 33C32.8311 33 31.4771 31.657 31.4771 30C31.4771 28.343 32.8301 27 34.5001 27C36.1701 27 37.5231 28.343 37.5231 30Z" fill="black"/>
</g>
<defs>
<filter id="filter0_d_946_214" x="-215" y="-219" width="498" height="498" filterUnits="userSpaceOnUse" color-interpolation-filters="sRGB">
<feFlood flood-opacity="0" result="BackgroundImageFix"/>
<feColorMatrix in="SourceAlpha" type="matrix" values="0 0 0 0 0 0 0 0 0 0 0 0 0 0 0 0 0 0 127 0" result="hardAlpha"/>
<feOffset dy="4"/>
<feGaussianBlur stdDeviation="6.75"/>
<feComposite in2="hardAlpha" operator="out"/>
<feColorMatrix type="matrix" values="0 0 0 0 0 0 0 0 0 0 0 0 0 0 0 0 0 0 0.25 0"/>
<feBlend mode="normal" in2="BackgroundImageFix" result="effect1_dropShadow_946_214"/>
<feBlend mode="normal" in="SourceGraphic" in2="effect1_dropShadow_946_214" result="shape"/>
</filter>
</defs>
</svg>
