<svg width="25" height="26" viewBox="0 0 25 26" fill="none" xmlns="http://www.w3.org/2000/svg">
<path fill-rule="evenodd" clip-rule="evenodd" d="M7.44619 3.41162L7.484 3.24662C7.55619 2.94 7.67444 2.489 7.9185 2.04487C8.16737 1.5925 8.55306 1.13394 9.15806 0.832123C9.761 0.531686 10.5166 0.419623 11.4509 0.543373C12.4821 0.680873 14.5536 1.02187 16.3837 1.95275C18.2241 2.88912 19.9484 4.49994 19.9484 7.18256C19.9484 8.56856 19.4121 10.0556 18.8924 11.025C18.6428 11.4911 18.3465 11.9366 18.0495 12.1766C17.9814 12.2316 17.8845 12.3003 17.7642 12.3484C17.4342 13.433 16.7772 14.3892 15.8832 15.0862C14.9891 15.7833 13.9016 16.1872 12.7693 16.2427C11.637 16.2982 10.5151 16.0027 9.55717 15.3964C8.5992 14.7902 7.85186 13.9029 7.41731 12.8558L7.40081 12.8586L7.15675 12.5622L7.15606 12.5609L7.15469 12.5595L7.15125 12.5547L7.13956 12.5409C7.08077 12.4677 7.02415 12.3927 6.96975 12.3161C6.82163 12.11 6.68173 11.8981 6.55037 11.6809C6.22725 11.146 5.83744 10.3842 5.58787 9.49531C5.339 8.60637 5.22487 7.56412 5.48612 6.48887C5.7405 5.4425 6.34069 4.41262 7.42762 3.49275L7.44619 3.41162ZM8.60119 12.1002C8.89936 12.9577 9.47195 13.693 10.2303 14.1921C10.9886 14.6912 11.8903 14.9264 12.7958 14.8611C13.7013 14.7959 14.56 14.4339 15.239 13.8313C15.9179 13.2286 16.3792 12.4189 16.5514 11.5276L16.6291 11.5537C16.6261 11.5148 16.6247 11.4758 16.625 11.4368C16.625 10.299 16.4669 9.50493 16.3197 9.00993C16.2909 8.91363 16.259 8.81825 16.2242 8.72393L16.196 8.72531H16.1685C15.6544 8.73634 15.1405 8.6972 14.634 8.60843C13.4536 8.40906 11.8551 7.91131 9.97275 6.75837C9.9315 6.8505 9.89025 6.95431 9.849 7.06981C9.71425 7.45137 9.60356 7.90443 9.508 8.38293C9.42344 8.80437 9.354 9.22856 9.288 9.62593L9.26256 9.78268C9.19175 10.2089 9.12094 10.6276 9.03844 10.9308C8.89406 11.4574 8.74694 11.8314 8.60119 12.0996M7.63869 10.8187C7.32848 10.2856 7.08466 9.71645 6.91269 9.12406C6.70712 8.39118 6.6315 7.59781 6.82262 6.81337C7.00825 6.05025 7.45719 5.24794 8.3805 4.48756C8.54687 4.37481 8.6225 4.22356 8.64312 4.183V4.18231C8.6789 4.10784 8.70789 4.0303 8.72975 3.95062C8.75175 3.87225 8.77581 3.765 8.7985 3.66875L8.82256 3.56081C8.88787 3.28375 8.97244 2.98194 9.12369 2.70625C9.27081 2.4395 9.47225 2.21125 9.772 2.06206C10.0731 1.9115 10.5392 1.80837 11.2694 1.906C12.2683 2.03869 14.1472 2.357 15.7601 3.17787C17.362 3.99256 18.5734 5.22594 18.5734 7.18187C18.5734 8.0825 18.2709 9.10687 17.9065 9.91468C17.8377 9.38806 17.7387 8.95768 17.637 8.61668C17.5653 8.37322 17.4769 8.135 17.3723 7.90375C17.3322 7.81834 17.2887 7.73463 17.2417 7.65281L17.23 7.63425L17.2259 7.62737L17.2238 7.62393L17.2224 7.62187L16.9681 7.22725L16.5129 7.31868L16.5033 7.32075L16.4366 7.32968C16.3343 7.34117 16.2315 7.34805 16.1286 7.35031C15.7047 7.35845 15.2811 7.32529 14.8636 7.25131C13.7547 7.06431 12.1253 6.55487 10.146 5.23694L9.66475 4.91587L9.26669 5.33525C8.93875 5.68037 8.716 6.15131 8.55306 6.60987C8.38669 7.08081 8.26087 7.60675 8.15981 8.11137C8.07597 8.5408 7.99988 8.9717 7.93156 9.40387L7.90544 9.55787C7.83187 10.0054 7.77206 10.3471 7.71156 10.5685C7.68681 10.6597 7.66252 10.7431 7.63869 10.8187Z" fill="white"/>
<path fill-rule="evenodd" clip-rule="evenodd" d="M8.31588 16.8378C8.17013 16.5477 7.99069 16.1895 7.6875 16.2589C3.97225 17.1046 0.125 19.5459 0.125 22.1419V25.875H24.875V22.1419C24.875 20.0973 22.488 18.1482 19.6589 16.9994L19.6555 16.9925L19.6459 16.9739L19.6232 16.9849C18.8717 16.6824 18.0894 16.4349 17.3125 16.2589C16.9667 16.1799 16.6092 16.6556 16.4531 16.9533H8.375L8.31588 16.8378ZM17.5896 17.7453C17.8902 17.8287 18.1884 17.922 18.484 18.0251C18.4922 18.2603 18.4744 18.538 18.4359 18.8213C18.3969 19.1146 18.3344 19.4043 18.2489 19.6875H17.3125C17.1849 19.6876 17.0598 19.7232 16.9512 19.7903C16.8426 19.8575 16.7549 19.9535 16.6979 20.0677L16.0104 21.4427C15.9626 21.5381 15.9376 21.6433 15.9375 21.75V23.125C15.9375 23.3073 16.0099 23.4822 16.1389 23.6111C16.2678 23.7401 16.4427 23.8125 16.625 23.8125H18V22.4375H17.3125V21.9123L17.7374 21.0625H19.6376L20.0625 21.9123V22.4375H19.375V23.8125H20.75C20.9323 23.8125 21.1072 23.7401 21.2361 23.6111C21.3651 23.4822 21.4375 23.3073 21.4375 23.125V21.75C21.4374 21.6433 21.4124 21.5381 21.3646 21.4427L20.6771 20.0677C20.6201 19.9535 20.5324 19.8575 20.4238 19.7903C20.3152 19.7232 20.1901 19.6876 20.0625 19.6875H19.6734C19.7575 19.3235 19.8144 18.9537 19.8439 18.5813C20.5142 18.8983 21.1371 19.2619 21.6768 19.6552C22.9981 20.6191 23.5 21.5211 23.5 22.1419V24.5H1.5V22.1419C1.5 21.5211 2.00188 20.6191 3.32325 19.6552C3.98738 19.1705 4.78006 18.7319 5.62981 18.3689C5.65355 18.9167 5.74146 19.4599 5.89175 19.9873L5.89725 20.0065C5.48624 20.2665 5.18033 20.6634 5.03357 21.1271C4.8868 21.5908 4.90862 22.0914 5.09516 22.5406C5.2817 22.9897 5.62097 23.3585 6.05304 23.5818C6.48511 23.8051 6.98219 23.8685 7.45648 23.7608C7.93077 23.6532 8.35175 23.3814 8.64508 22.9934C8.93841 22.6055 9.08521 22.1264 9.05955 21.6407C9.03389 21.155 8.83742 20.694 8.50485 20.3391C8.17227 19.9843 7.72499 19.7583 7.242 19.7013L7.21175 19.6023C7.13907 19.3462 7.08507 19.0852 7.05019 18.8213C7.01165 18.5547 6.99555 18.2854 7.00206 18.0162C7.00435 17.9584 7.00779 17.9071 7.01237 17.8622C7.09487 17.8365 7.17738 17.812 7.25988 17.7886L7.54519 18.329H17.2829L17.5896 17.7453ZM7 22.4485C7.36987 22.4485 7.6875 22.146 7.6875 21.7507C7.6875 21.3561 7.36987 21.0529 7 21.0529C6.63013 21.0529 6.3125 21.3554 6.3125 21.7507C6.3125 22.1453 6.63013 22.4485 7 22.4485Z" fill="white"/>
</svg>
