<svg width="15" height="15" viewBox="0 0 15 15" fill="none" xmlns="http://www.w3.org/2000/svg">
<path d="M10.6075 3.90687C10.464 3.82711 10.3062 3.77641 10.1431 3.75765C9.97995 3.73889 9.81475 3.75244 9.65688 3.79754C9.49902 3.84263 9.35158 3.91839 9.223 4.02047C9.09441 4.12256 8.9872 4.24897 8.90748 4.3925L6.58685 8.56875L5.25873 7.24062C5.14342 7.12123 5.00549 7.02601 4.85299 6.96049C4.70048 6.89498 4.53646 6.8605 4.37048 6.85906C4.20451 6.85762 4.03991 6.88924 3.88629 6.95209C3.73267 7.01495 3.5931 7.10776 3.47574 7.22513C3.35837 7.34249 3.26555 7.48206 3.2027 7.63568C3.13985 7.7893 3.10822 7.9539 3.10967 8.11987C3.11111 8.28585 3.14559 8.44987 3.2111 8.60238C3.27661 8.75488 3.37184 8.89281 3.49123 9.00812L5.99123 11.5081C6.22748 11.745 6.54623 11.875 6.87498 11.875L7.0481 11.8625C7.2397 11.8357 7.42246 11.7648 7.58199 11.6554C7.74153 11.5459 7.87349 11.401 7.96748 11.2319L11.0925 5.60687C11.1723 5.4634 11.223 5.30563 11.2418 5.14255C11.2606 4.97947 11.2471 4.81428 11.2021 4.65642C11.157 4.49856 11.0814 4.35111 10.9793 4.22251C10.8773 4.0939 10.751 3.98665 10.6075 3.90687Z" fill="#00AB7E"/>
</svg>
