<svg width="109" height="26" viewBox="0 0 109 26" fill="none" xmlns="http://www.w3.org/2000/svg">
<rect width="109" height="26" rx="13" fill="#212B51"/>
<path d="M29.9852 17V9.72727H34.3744V10.5085H30.8659V12.9659H34.1471V13.7472H30.8659V16.2188H34.4312V17H29.9852ZM37.9078 17.1136C37.4532 17.1136 37.0519 16.9988 36.7039 16.7692C36.3559 16.5372 36.0837 16.2105 35.8872 15.7891C35.6907 15.3653 35.5924 14.8646 35.5924 14.2869C35.5924 13.714 35.6907 13.2169 35.8872 12.7955C36.0837 12.3741 36.3571 12.0485 36.7075 11.8189C37.0579 11.5893 37.4627 11.4744 37.922 11.4744C38.2771 11.4744 38.5576 11.5336 38.7636 11.652C38.9719 11.768 39.1305 11.9006 39.2394 12.0497C39.3507 12.1965 39.4371 12.3172 39.4987 12.4119H39.5697V9.72727H40.4078V17H39.5981V16.1619H39.4987C39.4371 16.2614 39.3495 16.3868 39.2359 16.5384C39.1222 16.6875 38.9601 16.8213 38.7494 16.9396C38.5387 17.0556 38.2581 17.1136 37.9078 17.1136ZM38.0214 16.3608C38.3576 16.3608 38.6417 16.2732 38.8737 16.098C39.1057 15.9205 39.282 15.6754 39.4028 15.3629C39.5235 15.0481 39.5839 14.6847 39.5839 14.2727C39.5839 13.8655 39.5247 13.5092 39.4063 13.2038C39.288 12.8961 39.1128 12.657 38.8808 12.4865C38.6488 12.3137 38.3623 12.2273 38.0214 12.2273C37.6663 12.2273 37.3704 12.3184 37.1336 12.5007C36.8992 12.6806 36.7229 12.9257 36.6045 13.2358C36.4885 13.5436 36.4305 13.8892 36.4305 14.2727C36.4305 14.661 36.4897 15.0137 36.608 15.331C36.7288 15.6458 36.9063 15.8968 37.1407 16.0838C37.3775 16.2685 37.671 16.3608 38.0214 16.3608ZM42.059 17V11.5455H42.8971V17H42.059ZM42.4852 10.6364C42.3218 10.6364 42.181 10.5807 42.0626 10.4695C41.9466 10.3582 41.8886 10.2244 41.8886 10.0682C41.8886 9.91193 41.9466 9.77817 42.0626 9.6669C42.181 9.55563 42.3218 9.5 42.4852 9.5C42.6485 9.5 42.7882 9.55563 42.9042 9.6669C43.0226 9.77817 43.0818 9.91193 43.0818 10.0682C43.0818 10.2244 43.0226 10.3582 42.9042 10.4695C42.7882 10.5807 42.6485 10.6364 42.4852 10.6364ZM46.8042 11.5455V12.2557H43.9775V11.5455H46.8042ZM44.8014 10.2386H45.6395V15.4375C45.6395 15.6742 45.6738 15.8518 45.7425 15.9702C45.8135 16.0862 45.9034 16.1643 46.0123 16.2045C46.1236 16.2424 46.2408 16.2614 46.3639 16.2614C46.4562 16.2614 46.532 16.2566 46.5912 16.2472C46.6504 16.2353 46.6977 16.2259 46.7332 16.2188L46.9037 16.9716C46.8469 16.9929 46.7675 17.0142 46.6657 17.0355C46.564 17.0592 46.4349 17.071 46.2787 17.071C46.0419 17.071 45.8099 17.0201 45.5827 16.9183C45.3577 16.8165 45.1707 16.6615 45.0216 16.4531C44.8748 16.2448 44.8014 15.982 44.8014 15.6648V10.2386ZM50.8774 19.0455V11.5455H51.6871V12.4119H51.7865C51.848 12.3172 51.9333 12.1965 52.0422 12.0497C52.1534 11.9006 52.3121 11.768 52.518 11.652C52.7264 11.5336 53.0081 11.4744 53.3632 11.4744C53.8225 11.4744 54.2273 11.5893 54.5777 11.8189C54.9281 12.0485 55.2015 12.3741 55.398 12.7955C55.5945 13.2169 55.6927 13.714 55.6927 14.2869C55.6927 14.8646 55.5945 15.3653 55.398 15.7891C55.2015 16.2105 54.9292 16.5372 54.5812 16.7692C54.2332 16.9988 53.8319 17.1136 53.3774 17.1136C53.027 17.1136 52.7465 17.0556 52.5358 16.9396C52.3251 16.8213 52.1629 16.6875 52.0493 16.5384C51.9356 16.3868 51.848 16.2614 51.7865 16.1619H51.7155V19.0455H50.8774ZM51.7013 14.2727C51.7013 14.6847 51.7616 15.0481 51.8824 15.3629C52.0031 15.6754 52.1795 15.9205 52.4115 16.098C52.6435 16.2732 52.9276 16.3608 53.2638 16.3608C53.6141 16.3608 53.9065 16.2685 54.1409 16.0838C54.3776 15.8968 54.5552 15.6458 54.6736 15.331C54.7943 15.0137 54.8547 14.661 54.8547 14.2727C54.8547 13.8892 54.7955 13.5436 54.6771 13.2358C54.5611 12.9257 54.3847 12.6806 54.148 12.5007C53.9136 12.3184 53.6189 12.2273 53.2638 12.2273C52.9229 12.2273 52.6364 12.3137 52.4044 12.4865C52.1724 12.657 51.9972 12.8961 51.8788 13.2038C51.7604 13.5092 51.7013 13.8655 51.7013 14.2727ZM56.9711 17V11.5455H57.7808V12.3693H57.8376C57.9371 12.0994 58.117 11.8804 58.3774 11.7124C58.6378 11.5443 58.9314 11.4602 59.2581 11.4602C59.3196 11.4602 59.3966 11.4614 59.4889 11.4638C59.5812 11.4661 59.6511 11.4697 59.6984 11.4744V12.3267C59.67 12.3196 59.6049 12.3089 59.5031 12.2947C59.4037 12.2782 59.2983 12.2699 59.1871 12.2699C58.9219 12.2699 58.6852 12.3255 58.4768 12.4368C58.2709 12.5457 58.1075 12.6972 57.9868 12.8913C57.8684 13.0831 57.8092 13.3021 57.8092 13.5483V17H56.9711ZM62.7417 17.1136C62.2493 17.1136 61.8173 16.9964 61.4456 16.7621C61.0763 16.5277 60.7874 16.1998 60.5791 15.7784C60.3731 15.357 60.2702 14.8646 60.2702 14.3011C60.2702 13.733 60.3731 13.237 60.5791 12.8132C60.7874 12.3894 61.0763 12.0604 61.4456 11.826C61.8173 11.5916 62.2493 11.4744 62.7417 11.4744C63.2342 11.4744 63.665 11.5916 64.0344 11.826C64.406 12.0604 64.6949 12.3894 64.9008 12.8132C65.1092 13.237 65.2133 13.733 65.2133 14.3011C65.2133 14.8646 65.1092 15.357 64.9008 15.7784C64.6949 16.1998 64.406 16.5277 64.0344 16.7621C63.665 16.9964 63.2342 17.1136 62.7417 17.1136ZM62.7417 16.3608C63.1158 16.3608 63.4236 16.2649 63.665 16.0732C63.9065 15.8814 64.0853 15.6293 64.2013 15.3168C64.3173 15.0043 64.3753 14.6657 64.3753 14.3011C64.3753 13.9366 64.3173 13.5968 64.2013 13.282C64.0853 12.9671 63.9065 12.7126 63.665 12.5185C63.4236 12.3243 63.1158 12.2273 62.7417 12.2273C62.3677 12.2273 62.0599 12.3243 61.8184 12.5185C61.577 12.7126 61.3982 12.9671 61.2822 13.282C61.1662 13.5968 61.1082 13.9366 61.1082 14.3011C61.1082 14.6657 61.1662 15.0043 61.2822 15.3168C61.3982 15.6293 61.577 15.8814 61.8184 16.0732C62.0599 16.2649 62.3677 16.3608 62.7417 16.3608ZM68.9216 11.5455V12.2557H65.9813V11.5455H68.9216ZM66.8619 17V10.7926C66.8619 10.4801 66.9353 10.2197 67.0821 10.0114C67.2289 9.80303 67.4195 9.64678 67.6539 9.54261C67.8882 9.43845 68.1356 9.38636 68.396 9.38636C68.602 9.38636 68.7701 9.40294 68.9003 9.43608C69.0305 9.46922 69.1276 9.5 69.1915 9.52841L68.95 10.2528C68.9074 10.2386 68.8482 10.2209 68.7725 10.1996C68.6991 10.1783 68.602 10.1676 68.4813 10.1676C68.2043 10.1676 68.0042 10.2375 67.8811 10.3771C67.7604 10.5168 67.7 10.7216 67.7 10.9915V17H66.8619ZM70.0961 17V11.5455H70.9342V17H70.0961ZM70.5223 10.6364C70.3589 10.6364 70.2181 10.5807 70.0997 10.4695C69.9837 10.3582 69.9257 10.2244 69.9257 10.0682C69.9257 9.91193 69.9837 9.77817 70.0997 9.6669C70.2181 9.55563 70.3589 9.5 70.5223 9.5C70.6856 9.5 70.8253 9.55563 70.9413 9.6669C71.0597 9.77817 71.1189 9.91193 71.1189 10.0682C71.1189 10.2244 71.0597 10.3582 70.9413 10.4695C70.8253 10.5807 70.6856 10.6364 70.5223 10.6364ZM73.3073 9.72727V17H72.4692V9.72727H73.3073ZM77.1292 17.1136C76.6036 17.1136 76.1502 16.9976 75.7691 16.7656C75.3903 16.5312 75.0979 16.2045 74.892 15.7855C74.6884 15.3641 74.5866 14.8741 74.5866 14.3153C74.5866 13.7566 74.6884 13.2642 74.892 12.8381C75.0979 12.4096 75.3844 12.0758 75.7513 11.8366C76.1206 11.5952 76.5515 11.4744 77.0439 11.4744C77.328 11.4744 77.6086 11.5218 77.8856 11.6165C78.1626 11.7112 78.4147 11.8651 78.642 12.0781C78.8692 12.2888 79.0503 12.5682 79.1853 12.9162C79.3202 13.2642 79.3877 13.6927 79.3877 14.2017V14.5568H75.1831V13.8324H78.5354C78.5354 13.5246 78.4739 13.25 78.3508 13.0085C78.23 12.767 78.0572 12.5765 77.8323 12.4368C77.6098 12.2971 77.347 12.2273 77.0439 12.2273C76.7101 12.2273 76.4213 12.3101 76.1775 12.4759C75.936 12.6392 75.7501 12.8523 75.6199 13.1151C75.4897 13.3778 75.4246 13.6596 75.4246 13.9602V14.4432C75.4246 14.8551 75.4956 15.2043 75.6377 15.4908C75.7821 15.7749 75.9822 15.9915 76.2378 16.1406C76.4935 16.2874 76.7906 16.3608 77.1292 16.3608C77.3493 16.3608 77.5482 16.33 77.7258 16.2685C77.9057 16.2045 78.0608 16.1098 78.191 15.9844C78.3212 15.8565 78.4218 15.6979 78.4928 15.5085L79.3025 15.7358C79.2172 16.0104 79.074 16.2519 78.8728 16.4602C78.6715 16.6662 78.423 16.8272 78.127 16.9432C77.8311 17.0568 77.4985 17.1136 77.1292 17.1136Z" fill="white"/>
<path d="M93.226 11.29L93.7565 10.76L96.646 13.6485C96.6926 13.6948 96.7295 13.7498 96.7548 13.8104C96.78 13.8711 96.793 13.9361 96.793 14.0017C96.793 14.0674 96.78 14.1324 96.7548 14.193C96.7295 14.2537 96.6926 14.3087 96.646 14.355L93.7565 17.245L93.2265 16.715L95.9385 14.0025L93.226 11.29Z" fill="white"/>
</svg>
