<svg width="50" height="50" viewBox="0 0 50 50" fill="none" xmlns="http://www.w3.org/2000/svg">
<rect width="50" height="50" rx="25" fill="#DB0000"/>
<path d="M20.772 15.439L21.849 15.095C22.857 14.773 23.935 15.294 24.367 16.312L25.227 18.34C25.602 19.223 25.394 20.262 24.713 20.908L22.82 22.706C22.9366 23.782 23.298 24.841 23.904 25.883C24.4803 26.8909 25.2524 27.7732 26.175 28.478L28.451 27.718C29.313 27.431 30.252 27.762 30.781 28.539L32.013 30.349C32.629 31.253 32.518 32.499 31.755 33.265L30.937 34.086C30.123 34.903 28.961 35.2 27.885 34.864C25.3463 34.072 23.012 31.721 20.882 27.811C18.7493 23.8943 17.9966 20.5717 18.624 17.843C18.888 16.695 19.706 15.78 20.774 15.439" fill="white"/>
</svg>
