<svg width="35" height="35" viewBox="0 0 35 35" fill="none" xmlns="http://www.w3.org/2000/svg">
<rect width="35" height="35" rx="17.5" fill="#DFDFDF"/>
<path fill-rule="evenodd" clip-rule="evenodd" d="M12.268 12.2684C12.9978 11.5385 13.9643 11.0933 14.9934 11.0131C16.0225 10.9329 17.0464 11.223 17.8804 11.8312C18.7616 11.1936 19.8505 10.9109 20.9306 11.0394C22.0106 11.1678 23.0028 11.698 23.7099 12.5245C24.417 13.3509 24.7873 14.4132 24.747 15.5001C24.7068 16.5871 24.2591 17.6191 23.4928 18.391L19.4109 22.473C19.0049 22.8788 18.4544 23.1068 17.8804 23.1068C17.3064 23.1068 16.7559 22.8788 16.3499 22.473L12.268 18.3917C11.4561 17.5798 11 16.4786 11 15.3304C11 14.1822 11.4561 13.0804 12.268 12.2684Z" fill="#464646"/>
</svg>
