<svg width="20" height="21" viewBox="0 0 20 21" fill="none" xmlns="http://www.w3.org/2000/svg">
<path d="M7.07911 3.35199L2.79207 10.2127C1.94881 11.5622 1.67617 13.1914 2.03414 14.7419C2.3921 16.2924 3.35134 17.6372 4.70084 18.4805C6.05034 19.3238 7.67955 19.5964 9.23006 19.2384C10.7806 18.8805 12.1254 17.9212 12.9686 16.5717L18.2678 8.09125C18.83 7.19159 19.0118 6.10544 18.7731 5.07177C18.5345 4.03809 17.895 3.14155 16.9953 2.57938C16.0957 2.01721 15.0095 1.83545 13.9758 2.07409C12.9422 2.31274 12.0456 2.95223 11.4835 3.8519L6.61773 11.6387C6.47855 11.8614 6.38461 12.1094 6.34126 12.3684C6.29791 12.6275 6.30601 12.8925 6.36509 13.1484C6.42417 13.4043 6.53308 13.6461 6.6856 13.8599C6.83812 14.0737 7.03126 14.2554 7.25399 14.3946C7.70382 14.6757 8.24689 14.7666 8.76373 14.6473C9.28057 14.5279 9.72884 14.2082 10.0099 13.7584L13.8158 7.66767" stroke="black" stroke-opacity="0.75" stroke-width="2" stroke-linecap="round" stroke-linejoin="round"/>
</svg>
