<svg width="38" height="38" viewBox="0 0 38 38" fill="none" xmlns="http://www.w3.org/2000/svg">
<rect width="38" height="38" rx="19" fill="#1C274D"/>
<path d="M25.125 12.875C25.125 11.011 23.614 9.5 21.75 9.5C19.886 9.5 18.375 11.011 18.375 12.875C18.375 14.739 19.886 16.25 21.75 16.25C23.614 16.25 25.125 14.739 25.125 12.875Z" stroke="white"/>
<path d="M20.625 24.125C20.625 22.261 19.114 20.75 17.25 20.75C15.386 20.75 13.875 22.261 13.875 24.125C13.875 25.989 15.386 27.5 17.25 27.5C19.114 27.5 20.625 25.989 20.625 24.125Z" stroke="white"/>
<path d="M7.125 24.125H9.375M25.125 24.125H31.875M7.125 12.875H13.875M29.625 12.875H31.875" stroke="white" stroke-linecap="round"/>
</svg>
