<svg width="27" height="27" viewBox="0 0 27 27" fill="none" xmlns="http://www.w3.org/2000/svg">
<rect width="27" height="27" rx="13.5" fill="white"/>
<path d="M11.2174 18C11.0047 17.9837 10.8015 17.906 10.6326 17.7765C10.4638 17.647 10.3367 17.4713 10.2671 17.271L8.87591 14.1623C8.7891 13.9673 8.67814 13.8787 8.61247 13.8787H6.37742C6.27732 13.8787 6.18132 13.8392 6.11054 13.7689C6.03976 13.6986 6 13.6032 6 13.5037C6 13.4043 6.03976 13.3089 6.11054 13.2386C6.18132 13.1683 6.27732 13.1287 6.37742 13.1287H8.61247C8.82596 13.1435 9.03031 13.2206 9.1999 13.3503C9.36949 13.4799 9.49679 13.6565 9.56582 13.8577L10.954 16.9665C11.0415 17.1622 11.1487 17.25 11.2174 17.25C11.2838 17.25 11.3902 17.1652 11.4771 16.974L14.7847 9.717C14.8537 9.51747 14.9808 9.34281 15.1499 9.21515C15.3189 9.0875 15.5223 9.01262 15.7343 9C15.9474 9.01632 16.151 9.09427 16.32 9.22421C16.489 9.35415 16.616 9.53042 16.6854 9.73125L18.0735 12.8445C18.1566 13.0313 18.269 13.1287 18.337 13.1287H20.6226C20.7227 13.1287 20.8187 13.1683 20.8895 13.2386C20.9602 13.3089 21 13.4043 21 13.5037C21 13.6032 20.9602 13.6986 20.8895 13.7689C20.8187 13.8392 20.7227 13.8787 20.6226 13.8787H18.34C18.1262 13.8638 17.9217 13.7864 17.7521 13.6563C17.5824 13.5262 17.4553 13.3492 17.3866 13.1475L15.9985 10.0343C15.9109 9.8385 15.803 9.75075 15.7343 9.75C15.6679 9.75 15.5614 9.8355 15.4746 10.026L12.1647 17.283C12.0941 17.4811 11.9669 17.6545 11.7987 17.7819C11.6304 17.9092 11.4284 17.985 11.2174 18Z" fill="#D40000"/>
</svg>
