<svg width="21" height="22" viewBox="0 0 21 22" fill="none" xmlns="http://www.w3.org/2000/svg">
<path d="M19.875 18.7917V11.7781C19.875 11.213 19.76 10.6537 19.5371 10.1344C19.3141 9.61508 18.9879 9.14654 18.5781 8.75729L11.9354 2.44792C11.5482 2.08009 11.0346 1.875 10.5005 1.875C9.96647 1.875 9.45281 2.08009 9.06562 2.44792L2.42187 8.75729C2.01214 9.14654 1.68587 9.61508 1.46292 10.1344C1.23997 10.6537 1.125 11.213 1.125 11.7781V18.7917C1.125 19.3442 1.34449 19.8741 1.73519 20.2648C2.12589 20.6555 2.6558 20.875 3.20833 20.875H17.7917C18.3442 20.875 18.8741 20.6555 19.2648 20.2648C19.6555 19.8741 19.875 19.3442 19.875 18.7917Z" stroke="black" stroke-width="2" stroke-linecap="round" stroke-linejoin="round"/>
</svg>
