<svg width="9" height="11" viewBox="0 0 9 11" fill="none" xmlns="http://www.w3.org/2000/svg">
<path d="M4.5 0C5.69347 0 6.83807 0.474105 7.68198 1.31802C8.52589 2.16193 9 3.30652 9 4.49999C9 6.03699 8.162 7.29499 7.279 8.19749C6.83784 8.64352 6.35646 9.0479 5.841 9.40549L5.628 9.55048L5.528 9.61698L5.3395 9.73699L5.1715 9.83948L4.9635 9.96048C4.82232 10.0411 4.66256 10.0835 4.5 10.0835C4.33744 10.0835 4.17768 10.0411 4.0365 9.96048L3.8285 9.83948L3.5685 9.67948L3.4725 9.61698L3.2675 9.48048C2.71142 9.10425 2.19345 8.67453 1.721 8.19749C0.838 7.29449 0 6.03699 0 4.49999C0 3.30652 0.474106 2.16193 1.31802 1.31802C2.16193 0.474105 3.30653 0 4.5 0ZM4.5 3C4.30302 3 4.10796 3.03879 3.92597 3.11418C3.74399 3.18956 3.57863 3.30005 3.43934 3.43933C3.30005 3.57862 3.18956 3.74398 3.11418 3.92597C3.0388 4.10796 3 4.30301 3 4.49999C3 4.69698 3.0388 4.89203 3.11418 5.07402C3.18956 5.25601 3.30005 5.42136 3.43934 5.56065C3.57863 5.69994 3.74399 5.81043 3.92597 5.88581C4.10796 5.96119 4.30302 5.99999 4.5 5.99999C4.89782 5.99999 5.27936 5.84196 5.56066 5.56065C5.84196 5.27935 6 4.89782 6 4.49999C6 4.10217 5.84196 3.72064 5.56066 3.43933C5.27936 3.15803 4.89782 3 4.5 3Z" fill="black"/>
</svg>
