<svg width="35" height="35" viewBox="0 0 35 35" fill="none" xmlns="http://www.w3.org/2000/svg">
<rect width="35" height="35" rx="17.5" fill="#FFDBDB"/>
<path opacity="0.5" d="M14 8H15C17.829 8 19.242 8 20.121 8.879C21 9.758 21 11.172 21 14V22C21 24.829 21 26.243 20.121 27.122C19.243 28 17.829 28 15.002 28H14C11.172 28 9.758 28 8.879 27.121C8 26.243 8 24.828 8 22V14C8 11.172 8 9.757 8.879 8.879C9.758 8.001 11.172 8 14 8Z" fill="#C31818"/>
<path fill-rule="evenodd" clip-rule="evenodd" d="M14.25 18C14.25 17.8011 14.329 17.6103 14.4697 17.4697C14.6103 17.329 14.8011 17.25 15 17.25H25.973L24.012 15.57C23.9371 15.5059 23.8756 15.4277 23.831 15.3399C23.7864 15.252 23.7595 15.1562 23.7519 15.058C23.7443 14.9597 23.7561 14.861 23.7866 14.7673C23.8172 14.6736 23.8659 14.5869 23.93 14.512C23.9941 14.4371 24.0723 14.3756 24.1601 14.331C24.248 14.2864 24.3438 14.2595 24.442 14.2519C24.5403 14.2443 24.639 14.2561 24.7327 14.2866C24.8264 14.3172 24.9131 14.3659 24.988 14.43L28.488 17.43C28.5703 17.5004 28.6364 17.5878 28.6818 17.6862C28.7271 17.7846 28.7506 17.8917 28.7506 18C28.7506 18.1083 28.7271 18.2154 28.6818 18.3138C28.6364 18.4122 28.5703 18.4996 28.488 18.57L24.988 21.57C24.8368 21.6994 24.6404 21.7635 24.442 21.7481C24.2436 21.7327 24.0594 21.6392 23.93 21.488C23.8006 21.3368 23.7365 21.1404 23.7519 20.942C23.7673 20.7436 23.8608 20.5594 24.012 20.43L25.972 18.75H15C14.8011 18.75 14.6103 18.671 14.4697 18.5303C14.329 18.3897 14.25 18.1989 14.25 18Z" fill="#C31818"/>
</svg>
