<svg width="24" height="24" viewBox="0 0 24 24" fill="none" xmlns="http://www.w3.org/2000/svg">
<path fill-rule="evenodd" clip-rule="evenodd" d="M21.9709 12.0089L11.9869 21.9494C10.6563 23.2485 8.86667 23.9699 7.00706 23.9568C5.14745 23.9436 3.3682 23.1969 2.05609 21.8791C0.743981 20.5612 0.00508475 18.7788 2.6145e-05 16.9191C-0.00503246 15.0595 0.724155 13.273 2.02907 11.948L12.0131 2.00754C13.3437 0.708406 15.1333 -0.0129875 16.9929 0.000177063C18.8526 0.0133417 20.6318 0.760001 21.9439 2.07784C23.256 3.39568 23.9949 5.17817 24 7.03782C24.005 8.89747 23.2758 10.684 21.9709 12.0089ZM20.2309 3.7836C19.3754 2.92551 18.2143 2.44198 17.0025 2.43919C15.7908 2.43639 14.6275 2.91455 13.768 3.76868L3.78276 13.7092C2.92358 14.5645 2.4394 15.7262 2.43672 16.9386C2.43404 18.151 2.91308 19.3148 3.76847 20.174C4.62386 21.0331 5.78552 21.5173 6.99791 21.52C8.21029 21.5227 9.37408 21.0436 10.2333 20.1882L20.2172 10.2478C21.0757 9.39217 21.5595 8.2308 21.5623 7.01877C21.5651 5.80674 21.0867 4.64315 20.2322 3.7836H20.2309Z" fill="white"/>
</svg>
