<svg width="10" height="10" viewBox="0 0 10 10" fill="none" xmlns="http://www.w3.org/2000/svg">
<g clip-path="url(#clip0_430_905)">
<path d="M4.99998 0.833334V1.25M4.99998 8.75V9.16667M9.16665 5H8.74998M1.24998 5H0.833313M7.94581 2.05417L7.78248 2.21792M2.21748 7.7825L2.05373 7.94625M7.94581 7.94583L7.78248 7.78208M2.21748 2.2175L2.05373 2.05375M2.64206 4.16667C2.45322 4.70128 2.45171 5.28422 2.63779 5.8198C2.82386 6.35539 3.18647 6.81182 3.66611 7.11418C4.14575 7.41655 4.71392 7.54689 5.27739 7.48383C5.84087 7.42076 6.36616 7.16803 6.76709 6.76711C7.16801 6.36618 7.42074 5.84089 7.48381 5.27741C7.54687 4.71394 7.41653 4.14577 7.11416 3.66613C6.81179 3.18649 6.35537 2.82388 5.81978 2.63781C5.28419 2.45173 4.70126 2.45324 4.16665 2.64208" stroke="white" stroke-width="1.5" stroke-linecap="round"/>
</g>
<defs>
<clipPath id="clip0_430_905">
<rect width="10" height="10" fill="white"/>
</clipPath>
</defs>
</svg>
