<svg width="40" height="40" viewBox="0 0 40 40" fill="none" xmlns="http://www.w3.org/2000/svg">
<rect x="0.75" y="0.75" width="38.5" height="38.5" rx="19.25" fill="#F5F5F5"/>
<rect x="0.75" y="0.75" width="38.5" height="38.5" rx="19.25" stroke="white" stroke-width="1.5"/>
<path d="M10.9989 25H28.9989C29.2538 25.0003 29.4989 25.0979 29.6843 25.2728C29.8696 25.4478 29.9811 25.687 29.9961 25.9414C30.011 26.1958 29.9282 26.4464 29.7646 26.6418C29.601 26.8373 29.369 26.9629 29.1159 26.993L28.9989 27H10.9989C10.744 26.9997 10.4989 26.9021 10.3135 26.7272C10.1282 26.5522 10.0167 26.313 10.0017 26.0586C9.98678 25.8042 10.0696 25.5536 10.2332 25.3582C10.3967 25.1627 10.6288 25.0371 10.8819 25.007L10.9989 25ZM10.9989 19L28.9989 18.998C29.2538 18.9983 29.4989 19.0959 29.6843 19.2708C29.8696 19.4458 29.9811 19.685 29.9961 19.9394C30.011 20.1938 29.9282 20.4444 29.7646 20.6398C29.601 20.8353 29.369 20.9609 29.1159 20.991L28.9989 20.998L10.9989 21C10.744 20.9997 10.4989 20.9021 10.3135 20.7272C10.1282 20.5522 10.0167 20.313 10.0017 20.0586C9.98678 19.8042 10.0696 19.5536 10.2332 19.3582C10.3967 19.1627 10.6288 19.0371 10.8819 19.007L10.9989 19ZM10.9989 13H28.9989C29.2538 13.0003 29.4989 13.0979 29.6843 13.2728C29.8696 13.4478 29.9811 13.687 29.9961 13.9414C30.011 14.1958 29.9282 14.4464 29.7646 14.6418C29.601 14.8373 29.369 14.9629 29.1159 14.993L28.9989 15H10.9989C10.744 14.9997 10.4989 14.9021 10.3135 14.7272C10.1282 14.5522 10.0167 14.313 10.0017 14.0586C9.98678 13.8042 10.0696 13.5536 10.2332 13.3582C10.3967 13.1627 10.6288 13.0371 10.8819 13.007L10.9989 13Z" fill="black"/>
</svg>
