<svg width="63" height="65" viewBox="0 0 63 65" fill="none" xmlns="http://www.w3.org/2000/svg">
<path d="M16.5 41.5V49.5C16.6667 52.6667 19 60 26 60C34 60 37 54 37 50.5C37 48.5 37 45.1667 37 42.5C37.1667 40.3333 39.3 35.8 44.5 35C51 34 54.5 40 54.5 42.5C54.5 44.5 54.5 47 54.5 48M54.5 48C51.5 48 47 50 47 55C47 61.5765 52 63.5 54.5 63.5C57.438 63.5 62 62.5 62 55.5C62 53 61 48.5 54.5 48Z" stroke="url(#paint0_linear_769_53)" stroke-width="2" stroke-linecap="round" stroke-linejoin="round"/>
<path d="M25.5 4C27 4 30.5 4.1 30.5 6.5C30.5 9.5 31 17.5 29 21" stroke="#5DEBFF" stroke-width="2" stroke-linecap="round"/>
<path d="M7.55554 4C6.05554 4 2.55554 4.1 2.55554 6.5C2.55554 9.5 2.05554 17.5 4.05554 21" stroke="url(#paint1_linear_769_53)" stroke-width="2" stroke-linecap="round" stroke-linejoin="round"/>
<path d="M23 1C21.5 1.00005 21.5 2.00002 21.5 3.99995C21.5 6.99997 22.382 6.99999 23.5 6.99997C25.1964 6.99994 25.5 6.00012 25.5 4.00012C25.5 1.25011 25.0615 0.999929 23 1Z" stroke="#5DEBFF" stroke-width="2"/>
<path d="M10 1C11.5 1.00005 11.5 2.00002 11.5 3.99995C11.5 6.99997 10.618 6.99999 9.5 6.99997C7.80357 6.99994 7.5 6.00012 7.5 4.00012C7.5 1.25011 7.93846 0.999929 10 1Z" stroke="url(#paint2_linear_769_53)" stroke-width="2"/>
<path d="M52 56C52 54.4 53 53.5 54.5 53.5C56 53.5 57 54.4 57 56C57 57.6 56.5 58.5 54.5 58.5C52.5 58.5 52 57.6 52 56Z" stroke="url(#paint3_linear_769_53)" stroke-width="2" stroke-linecap="round" stroke-linejoin="round"/>
<path d="M5 29.0001L2.5 26L2 25C1.5 23 3.6 19.4 8 23C13.5 27.5 18.5 28 26 22C27.5 21.1667 30.9 20.6001 30.5 25.0001C30.1 29.4001 23.3333 31.5001 20 32.0001V39.5001C20 40.1668 19.823 41.5001 18 41.5001C16.4 41.5001 15 41.5001 14.5 41.5001C13.8333 41.6668 12.5 41.1001 12.5 39.5001V33.0001C11.1667 32.6668 11 32.5001 9 31.5001" stroke="url(#paint4_linear_769_53)" stroke-width="2" stroke-linecap="round" stroke-linejoin="round"/>
<defs>
<linearGradient id="paint0_linear_769_53" x1="60" y1="63" x2="14" y2="41" gradientUnits="userSpaceOnUse">
<stop stop-color="#5DEBFF"/>
<stop offset="1" stop-color="#177FF6"/>
</linearGradient>
<linearGradient id="paint1_linear_769_53" x1="5.02776" y1="4" x2="5.02776" y2="21" gradientUnits="userSpaceOnUse">
<stop stop-color="#5DEBFF"/>
<stop offset="1" stop-color="#177FF6"/>
</linearGradient>
<linearGradient id="paint2_linear_769_53" x1="11.5" y1="1.5" x2="5" y2="12" gradientUnits="userSpaceOnUse">
<stop offset="0.171667" stop-color="#5DEBFF"/>
<stop offset="1" stop-color="#177FF6"/>
</linearGradient>
<linearGradient id="paint3_linear_769_53" x1="65.5" y1="58" x2="29.5" y2="58" gradientUnits="userSpaceOnUse">
<stop stop-color="#5DEBFF"/>
<stop offset="1" stop-color="#177FF6"/>
</linearGradient>
<linearGradient id="paint4_linear_769_53" x1="26" y1="21" x2="16" y2="42" gradientUnits="userSpaceOnUse">
<stop stop-color="#5DEBFF"/>
<stop offset="1" stop-color="#177FF6"/>
</linearGradient>
</defs>
</svg>
