<svg width="16" height="17" viewBox="0 0 16 17" fill="none" xmlns="http://www.w3.org/2000/svg">
<path d="M10.5895 12.1139L15.0269 16.8296C15.1347 16.9402 15.279 17.0014 15.4288 17C15.5785 16.9986 15.7218 16.9347 15.8277 16.8222C15.9336 16.7096 15.9937 16.5573 15.995 16.3981C15.9963 16.2389 15.9387 16.0856 15.8347 15.9711L0.982146 0.185354C0.92945 0.127365 0.866415 0.0811118 0.79672 0.049292C0.727025 0.0174723 0.652066 0.000723455 0.576215 2.29237e-05C0.500365 -0.000677608 0.425143 0.0146842 0.354938 0.0452118C0.284733 0.0757395 0.220952 0.120822 0.167316 0.177828C0.113679 0.234834 0.0712622 0.302623 0.0425391 0.377239C0.0138161 0.451854 -0.000637551 0.531803 2.15686e-05 0.612419C0.000680688 0.693035 0.0164394 0.772704 0.0463781 0.846778C0.0763168 0.920852 0.119836 0.987847 0.174396 1.04385L3.13919 4.19493C0.859898 6.10743 0.0407235 8.90028 0.0292985 8.9446C-0.0621018 9.26639 0.109274 9.60032 0.412037 9.69746C0.7148 9.7946 1.0347 9.61246 1.1261 9.29068C1.1678 9.13646 1.90186 6.666 3.94009 5.04675L5.75381 6.97443C5.39925 7.30244 5.11197 7.70445 4.90981 8.15548C4.70766 8.60651 4.59495 9.09692 4.5787 9.59621C4.56245 10.0955 4.64301 10.593 4.81535 11.0578C4.9877 11.5226 5.24817 11.9448 5.58055 12.298C5.91293 12.6513 6.31013 12.9281 6.74745 13.1113C7.18477 13.2945 7.65287 13.3801 8.12265 13.3628C8.59243 13.3456 9.05384 13.2258 9.47821 13.0109C9.90258 12.7961 10.2808 12.4907 10.5895 12.1139ZM9.77885 11.2517C9.57708 11.5155 9.32546 11.7313 9.04026 11.8852C8.75507 12.0391 8.44265 12.1276 8.12323 12.1451C7.80381 12.1626 7.48449 12.1086 7.18595 11.9866C6.8874 11.8646 6.61627 11.6774 6.39011 11.437C6.16394 11.1966 5.98778 10.9085 5.87301 10.5912C5.75825 10.2739 5.70743 9.93448 5.72386 9.59499C5.74029 9.2555 5.8236 8.92345 5.96839 8.62034C6.11319 8.31723 6.31624 8.0498 6.56441 7.83535L9.77885 11.2517ZM7.74919 6.0886L9.2533 7.68782C9.51836 7.87178 9.74457 8.11282 9.91823 8.39392L11.4229 9.99314C11.4286 9.90328 11.4317 9.81282 11.432 9.72175C11.4321 9.22046 11.3348 8.72455 11.1463 8.26506C10.9577 7.80557 10.682 7.39239 10.3363 7.05136C9.99058 6.71033 9.58238 6.44881 9.13722 6.28315C8.69207 6.11749 8.21953 6.05126 7.74919 6.0886ZM4.91407 3.07535L5.79665 4.0146C6.50866 3.76802 7.25341 3.64502 8.00226 3.65032C13.2035 3.65032 14.8087 9.05571 14.879 9.29068C14.9532 9.55175 15.1817 9.72175 15.4274 9.72175V9.71568C15.5163 9.71657 15.6043 9.69521 15.684 9.65332C15.7638 9.61143 15.8332 9.55019 15.8865 9.47454C15.9399 9.3989 15.9758 9.31096 15.9913 9.21785C16.0068 9.12474 16.0015 9.02905 15.9758 8.93853C15.9581 8.87782 14.0672 2.43603 8.00168 2.43603C6.81919 2.43603 5.79551 2.68071 4.9135 3.07535" fill="black" fill-opacity="0.5"/>
</svg>
