<svg width="38" height="38" viewBox="0 0 38 38" fill="none" xmlns="http://www.w3.org/2000/svg">
<rect width="38" height="38" rx="19" fill="#1C274D"/>
<path d="M16.5892 11.2283C17.3386 10.8575 18.1638 10.6653 19 10.6667C22.1058 10.6667 24.625 13.28 24.625 16.5042V17.0917C24.624 17.793 24.8241 18.4798 25.2017 19.0708L26.125 20.5075C26.9675 21.82 26.3242 23.6042 24.8583 24.0192C21.0281 25.1039 16.9719 25.1039 13.1417 24.0192C11.6758 23.6042 11.0325 21.82 11.875 20.5083L12.7983 19.0708C13.1759 18.4798 13.376 17.793 13.375 17.0917V16.5042C13.375 15.6092 13.5692 14.7608 13.9167 14.0025M15.25 24.8333C15.7958 26.29 17.2683 27.3333 19 27.3333C19.2039 27.3333 19.4039 27.3194 19.6 27.2917M22.75 24.8333C22.5243 25.4282 22.1509 25.9559 21.665 26.3667" stroke="white" stroke-width="1.5" stroke-linecap="round"/>
<rect x="8" y="8" width="5" height="5" rx="2.5" fill="white"/>
</svg>
