<svg width="35" height="35" viewBox="0 0 35 35" fill="none" xmlns="http://www.w3.org/2000/svg">
<rect width="35" height="35" rx="17.5" fill="#DFDFDF"/>
<path d="M24.934 20.98C24.6357 20.5033 24.4773 19.9524 24.477 19.39V15.226C24.477 13.5082 23.7946 11.8608 22.5799 10.6461C21.3653 9.43142 19.7178 8.74902 18 8.74902C16.2822 8.74902 14.6347 9.43142 13.4201 10.6461C12.2054 11.8608 11.523 13.5082 11.523 15.226V19.388C11.5231 19.9511 11.3647 20.5028 11.066 20.98L9.978 22.72C9.88339 22.8714 9.83103 23.0453 9.82634 23.2238C9.82166 23.4022 9.86482 23.5787 9.95136 23.7348C10.0379 23.8909 10.1646 24.021 10.3184 24.1116C10.4722 24.2022 10.6475 24.25 10.826 24.25H25.174C25.3525 24.25 25.5278 24.2022 25.6816 24.1116C25.8354 24.021 25.9621 23.8909 26.0486 23.7348C26.1352 23.5787 26.1783 23.4022 26.1737 23.2238C26.169 23.0453 26.1166 22.8714 26.022 22.72L24.934 20.98Z" stroke="#464646" stroke-width="1.5" stroke-linecap="round" stroke-linejoin="round"/>
<path d="M16 27.25H20" stroke="#464646" stroke-width="1.5" stroke-linecap="round"/>
</svg>
