<svg width="16" height="22" viewBox="0 0 16 22" fill="none" xmlns="http://www.w3.org/2000/svg">
<path d="M8 16.7619C7.46957 16.7619 6.96086 16.5412 6.58579 16.1482C6.21071 15.7553 6 15.2224 6 14.6667C6 13.5038 6.89 12.5714 8 12.5714C8.53043 12.5714 9.03914 12.7922 9.41421 13.1851C9.78929 13.578 10 14.111 10 14.6667C10 15.2224 9.78929 15.7553 9.41421 16.1482C9.03914 16.5412 8.53043 16.7619 8 16.7619ZM14 19.9048V9.42857H2V19.9048H14ZM14 7.33333C14.5304 7.33333 15.0391 7.55408 15.4142 7.94702C15.7893 8.33995 16 8.87288 16 9.42857V19.9048C16 20.4605 15.7893 20.9934 15.4142 21.3863C15.0391 21.7793 14.5304 22 14 22H2C1.46957 22 0.960859 21.7793 0.585786 21.3863C0.210714 20.9934 0 20.4605 0 19.9048V9.42857C0 8.26571 0.89 7.33333 2 7.33333H3V5.2381C3 3.84887 3.52678 2.51654 4.46447 1.5342C5.40215 0.551869 6.67392 0 8 0C8.65661 0 9.30679 0.135487 9.91342 0.398726C10.52 0.661965 11.0712 1.0478 11.5355 1.5342C11.9998 2.0206 12.3681 2.59805 12.6194 3.23356C12.8707 3.86908 13 4.55022 13 5.2381V7.33333H14ZM8 2.09524C7.20435 2.09524 6.44129 2.42636 5.87868 3.01576C5.31607 3.60516 5 4.40456 5 5.2381V7.33333H11V5.2381C11 4.40456 10.6839 3.60516 10.1213 3.01576C9.55871 2.42636 8.79565 2.09524 8 2.09524Z" fill="black"/>
</svg>
