<svg width="11" height="11" viewBox="0 0 11 11" fill="none" xmlns="http://www.w3.org/2000/svg">
<path opacity="0.5" fill-rule="evenodd" clip-rule="evenodd" d="M7.43371 2.21734L8.79221 3.57722C9.71438 4.5003 10.1755 4.96184 10.0682 5.45959C9.9605 5.95689 9.35 6.18605 8.12946 6.64484L7.28384 6.96247C6.95705 7.0853 6.79342 7.14672 6.66738 7.2558C6.61207 7.30408 6.56288 7.35786 6.5198 7.41714C6.42263 7.55326 6.37634 7.72147 6.28375 8.0588C6.07292 8.82514 5.9675 9.2083 5.71588 9.35176C5.61046 9.41226 5.49038 9.44343 5.36846 9.44343C5.07971 9.44343 4.79875 9.16201 4.23684 8.60009L3.56492 7.92726L3.07038 7.43226L2.4223 6.78326C1.86405 6.22455 1.58492 5.94543 1.58355 5.65805C1.58262 5.5338 1.61473 5.41153 1.67659 5.30376C1.82005 5.05489 2.20046 4.94993 2.9613 4.74001C3.29909 4.64697 3.46775 4.60068 3.60388 4.50305C3.66468 4.45905 3.71968 4.40833 3.76888 4.35089C3.87705 4.22347 3.93755 4.05893 4.05763 3.72984L4.36425 2.8943C4.81663 1.66001 5.04259 1.04263 5.54125 0.932635C6.03992 0.822635 6.50467 1.28738 7.43371 2.21734Z" fill="#212B51"/>
<path d="M1.51342 9.98071L3.56492 7.92737L3.07038 7.43237L1.01888 9.48571C0.956366 9.55198 0.922141 9.64 0.923469 9.73109C0.924797 9.82218 0.961574 9.90917 1.02599 9.97359C1.09041 10.038 1.1774 10.0748 1.26849 10.0761C1.35959 10.0774 1.44715 10.0432 1.51342 9.98071Z" fill="#212B51"/>
</svg>
