<svg width="22" height="22" viewBox="0 0 22 22" fill="none" xmlns="http://www.w3.org/2000/svg">
<path d="M10.943 0.25C8.634 0.25 6.825 0.25 5.413 0.44C3.969 0.634 2.829 1.04 1.934 1.934C1.039 2.829 0.634 3.969 0.44 5.414C0.25 6.825 0.25 8.634 0.25 10.943V11.057C0.25 13.366 0.25 15.175 0.44 16.587C0.634 18.031 1.04 19.171 1.934 20.066C2.829 20.961 3.969 21.366 5.414 21.56C6.825 21.75 8.634 21.75 10.943 21.75H11.057C13.366 21.75 15.175 21.75 16.587 21.56C18.031 21.366 19.171 20.96 20.066 20.066C20.961 19.171 21.366 18.031 21.56 16.586C21.75 15.175 21.75 13.366 21.75 11.057V9.5C21.75 9.30109 21.671 9.11032 21.5303 8.96967C21.3897 8.82902 21.1989 8.75 21 8.75C20.8011 8.75 20.6103 8.82902 20.4697 8.96967C20.329 9.11032 20.25 9.30109 20.25 9.5V11C20.25 13.378 20.248 15.086 20.074 16.386C19.902 17.665 19.574 18.436 19.005 19.006C18.435 19.575 17.665 19.902 16.386 20.074C15.086 20.248 13.378 20.25 11 20.25C8.622 20.25 6.914 20.248 5.614 20.074C4.335 19.902 3.564 19.574 2.994 19.005C2.425 18.435 2.098 17.665 1.926 16.386C1.752 15.086 1.75 13.378 1.75 11C1.75 8.622 1.752 6.914 1.926 5.614C2.098 4.335 2.426 3.564 2.995 2.994C3.565 2.425 4.335 2.098 5.614 1.926C6.914 1.752 8.622 1.75 11 1.75H12.5C12.6989 1.75 12.8897 1.67098 13.0303 1.53033C13.171 1.38968 13.25 1.19891 13.25 1C13.25 0.801088 13.171 0.610322 13.0303 0.46967C12.8897 0.329018 12.6989 0.25 12.5 0.25H10.943Z" fill="white"/>
</svg>
