<svg width="35" height="35" viewBox="0 0 35 35" fill="none" xmlns="http://www.w3.org/2000/svg">
<rect width="35" height="35" rx="17.5" fill="#DFDFDF"/>
<path d="M13.5 25.5C13.0875 25.5 12.7345 25.3533 12.441 25.0597C12.1475 24.7662 12.0005 24.413 12 24V16.5C12 16.0875 12.147 15.7345 12.441 15.441C12.735 15.1475 13.088 15.0005 13.5 15H14.25V13.5C14.25 12.4625 14.6158 11.5783 15.3473 10.8473C16.0788 10.1163 16.963 9.7505 18 9.75C19.037 9.7495 19.9215 10.1153 20.6535 10.8473C21.3855 11.5793 21.751 12.4635 21.75 13.5V15H22.5C22.9125 15 23.2657 15.147 23.5597 15.441C23.8538 15.735 24.0005 16.088 24 16.5V24C24 24.4125 23.8533 24.7657 23.5597 25.0597C23.2662 25.3538 22.913 25.5005 22.5 25.5H13.5ZM18 21.75C18.4125 21.75 18.7657 21.6033 19.0598 21.3098C19.3538 21.0163 19.5005 20.663 19.5 20.25C19.4995 19.837 19.3528 19.484 19.0598 19.191C18.7667 18.898 18.4135 18.751 18 18.75C17.5865 18.749 17.2335 18.896 16.941 19.191C16.6485 19.486 16.5015 19.839 16.5 20.25C16.4985 20.661 16.6455 21.0143 16.941 21.3098C17.2365 21.6053 17.5895 21.752 18 21.75ZM15.75 15H20.25V13.5C20.25 12.875 20.0312 12.3438 19.5938 11.9063C19.1562 11.4688 18.625 11.25 18 11.25C17.375 11.25 16.8438 11.4688 16.4062 11.9063C15.9688 12.3438 15.75 12.875 15.75 13.5V15Z" fill="#464646"/>
</svg>
