<svg width="40" height="40" viewBox="0 0 40 40" fill="none" xmlns="http://www.w3.org/2000/svg">
<rect width="40" height="40" rx="20" fill="#DADADA" fill-opacity="0.1"/>
<path opacity="0.5" fill-rule="evenodd" clip-rule="evenodd" d="M22.279 10.152C21.909 10 21.439 10 20.5 10C19.561 10 19.092 10 18.721 10.152C18.4769 10.2517 18.2549 10.3988 18.0678 10.5846C17.8808 10.7705 17.7323 10.9915 17.631 11.235C17.537 11.458 17.501 11.719 17.486 12.098C17.4789 12.3725 17.4021 12.6407 17.2628 12.8774C17.1236 13.114 16.9265 13.3114 16.69 13.451C16.4487 13.5851 16.1775 13.6561 15.9015 13.6575C15.6255 13.6589 15.3536 13.5907 15.111 13.459C14.773 13.281 14.528 13.183 14.286 13.151C13.7566 13.0819 13.2213 13.2242 12.796 13.547C12.478 13.789 12.243 14.193 11.774 15C11.304 15.807 11.07 16.21 11.017 16.605C10.947 17.131 11.091 17.663 11.417 18.084C11.565 18.276 11.774 18.437 12.097 18.639C12.574 18.936 12.88 19.442 12.88 20C12.88 20.558 12.574 21.064 12.098 21.36C11.774 21.563 11.565 21.724 11.416 21.916C11.2556 22.1242 11.1378 22.362 11.0693 22.6158C11.0008 22.8696 10.9831 23.1343 11.017 23.395C11.07 23.789 11.304 24.193 11.774 25C12.244 25.807 12.478 26.21 12.796 26.453C13.22 26.776 13.756 26.918 14.286 26.849C14.528 26.817 14.773 26.719 15.111 26.541C15.3537 26.4092 15.6258 26.3408 15.902 26.3422C16.1782 26.3436 16.4496 26.4147 16.691 26.549C17.177 26.829 17.465 27.344 17.486 27.902C17.501 28.282 17.537 28.542 17.631 28.765C17.835 29.255 18.227 29.645 18.721 29.848C19.091 30 19.561 30 20.5 30C21.439 30 21.909 30 22.279 29.848C22.5231 29.7483 22.7451 29.6012 22.9322 29.4154C23.1192 29.2295 23.2677 29.0085 23.369 28.765C23.463 28.542 23.499 28.282 23.514 27.902C23.534 27.344 23.823 26.828 24.31 26.549C24.5513 26.4149 24.8225 26.3439 25.0985 26.3425C25.3745 26.3411 25.6464 26.4093 25.889 26.541C26.227 26.719 26.472 26.817 26.714 26.849C27.244 26.919 27.78 26.776 28.204 26.453C28.522 26.211 28.757 25.807 29.226 25C29.696 24.193 29.93 23.79 29.983 23.395C30.0168 23.1343 29.9989 22.8695 29.9302 22.6157C29.8616 22.3619 29.7436 22.1241 29.583 21.916C29.435 21.724 29.226 21.563 28.903 21.361C28.426 21.064 28.12 20.558 28.12 20C28.12 19.442 28.426 18.936 28.902 18.64C29.226 18.437 29.435 18.276 29.584 18.084C29.7444 17.8758 29.8623 17.638 29.9307 17.3842C29.9992 17.1304 30.0169 16.8657 29.983 16.605C29.93 16.211 29.696 15.807 29.226 15C28.756 14.193 28.522 13.79 28.204 13.547C27.7787 13.2242 27.2434 13.0819 26.714 13.151C26.472 13.183 26.227 13.281 25.889 13.459C25.6463 13.5908 25.3742 13.6592 25.098 13.6578C24.8218 13.6564 24.5504 13.5853 24.309 13.451C24.0727 13.3113 23.8758 13.1139 23.7367 12.8772C23.5977 12.6405 23.521 12.3724 23.514 12.098C23.499 11.718 23.463 11.458 23.369 11.235C23.2677 10.9915 23.1192 10.7705 22.9322 10.5846C22.7451 10.3988 22.5231 10.2517 22.279 10.152Z" fill="white"/>
<path d="M23.523 20C23.523 21.657 22.169 23 20.5 23C18.831 23 17.477 21.657 17.477 20C17.477 18.343 18.83 17 20.5 17C22.17 17 23.523 18.343 23.523 20Z" fill="white"/>
</svg>
