<svg width="38" height="38" viewBox="0 0 38 38" fill="none" xmlns="http://www.w3.org/2000/svg">
<rect width="38" height="38" rx="19" fill="white"/>
<path d="M19.5 22.125C20.9497 22.125 22.125 20.9497 22.125 19.5C22.125 18.0503 20.9497 16.875 19.5 16.875C18.0503 16.875 16.875 18.0503 16.875 19.5C16.875 20.9497 18.0503 22.125 19.5 22.125Z" stroke="#1C274D" stroke-width="1.5"/>
<path d="M12.2033 18.31C12.6172 18.569 12.8832 19.0117 12.8832 19.5C12.8832 19.9882 12.6172 20.431 12.2033 20.69C11.9224 20.8676 11.7404 21.0085 11.6118 21.1765C11.4719 21.3589 11.3692 21.567 11.3098 21.7891C11.2503 22.0111 11.2352 22.2427 11.2653 22.4706C11.3108 22.8154 11.5147 23.1689 11.9215 23.875C12.3302 24.5811 12.534 24.9337 12.8097 25.1464C12.992 25.2863 13.2002 25.3889 13.4222 25.4484C13.6443 25.5078 13.8759 25.5229 14.1038 25.4929C14.3138 25.4649 14.5264 25.3791 14.8204 25.2234C15.0309 25.1085 15.2671 25.0488 15.5069 25.0501C15.7467 25.0513 15.9822 25.1133 16.1915 25.2304C16.6142 25.4754 16.8653 25.926 16.8828 26.4142C16.895 26.7467 16.9265 26.9742 17.0079 27.1694C17.0959 27.3818 17.2248 27.5749 17.3874 27.7375C17.55 27.9001 17.7431 28.029 17.9555 28.117C18.2767 28.25 18.6844 28.25 19.4999 28.25C20.3154 28.25 20.7232 28.25 21.0443 28.117C21.2567 28.029 21.4498 27.9001 21.6124 27.7375C21.775 27.5749 21.904 27.3818 21.9919 27.1694C22.0724 26.9742 22.1048 26.7467 22.117 26.4142C22.1345 25.926 22.3857 25.4745 22.8083 25.2304C23.0176 25.1133 23.2531 25.0513 23.4929 25.0501C23.7327 25.0488 23.9689 25.1085 24.1794 25.2234C24.4734 25.3791 24.6869 25.4649 24.8969 25.4929C25.3569 25.5534 25.822 25.4287 26.1902 25.1464C26.4658 24.9346 26.6697 24.5811 27.0774 23.875C27.2594 23.56 27.4003 23.3159 27.5053 23.1111M26.7965 20.6909C26.5918 20.5662 26.4221 20.3916 26.3032 20.1835C26.1843 19.9754 26.1201 19.7405 26.1167 19.5009C26.1167 19.0117 26.3827 18.569 26.7965 18.3091C27.0774 18.1324 27.2585 17.9915 27.388 17.8235C27.5279 17.6411 27.6306 17.433 27.69 17.2109C27.7495 16.9889 27.7646 16.7573 27.7345 16.5294C27.689 16.1846 27.4852 15.8311 27.0783 15.125C26.6697 14.4189 26.4658 14.0662 26.1902 13.8536C26.0078 13.7137 25.7996 13.6111 25.5776 13.5516C25.3555 13.4922 25.1239 13.4771 24.896 13.5071C24.686 13.5351 24.4734 13.6209 24.1785 13.7766C23.9682 13.8914 23.7321 13.9509 23.4925 13.9497C23.2529 13.9485 23.0175 13.8865 22.8083 13.7696C22.6023 13.6469 22.4309 13.4739 22.31 13.2668C22.1891 13.0598 22.1227 12.8254 22.117 12.5857C22.1048 12.2532 22.0733 12.0257 21.9919 11.8306C21.904 11.6182 21.775 11.4251 21.6124 11.2625C21.4498 11.0999 21.2567 10.9709 21.0443 10.883C20.7232 10.75 20.3154 10.75 19.4999 10.75C18.6844 10.75 18.2767 10.75 17.9555 10.883C17.7431 10.9709 17.55 11.0999 17.3874 11.2625C17.2248 11.4251 17.0959 11.6182 17.0079 11.8306C16.9274 12.0257 16.895 12.2532 16.8828 12.5857C16.8771 12.8254 16.8107 13.0598 16.6898 13.2668C16.5689 13.4739 16.3975 13.6469 16.1915 13.7696C15.9822 13.8867 15.7467 13.9487 15.5069 13.9499C15.2671 13.9512 15.0309 13.8915 14.8204 13.7766C14.5264 13.6209 14.3129 13.5351 14.1029 13.5071C13.6429 13.4466 13.1778 13.5713 12.8097 13.8536C12.5349 14.0662 12.3302 14.4189 11.9224 15.125C11.7404 15.44 11.5995 15.6841 11.4945 15.8889" stroke="#1C274D" stroke-width="1.5" stroke-linecap="round"/>
</svg>
