<svg width="17" height="17" viewBox="0 0 17 17" fill="none" xmlns="http://www.w3.org/2000/svg">
<rect width="17" height="17" rx="8.5" fill="#00AB7E"/>
<path d="M10.7788 5.86504C10.6736 5.80655 10.5579 5.76936 10.4383 5.75561C10.3186 5.74185 10.1975 5.75179 10.0817 5.78486C9.96596 5.81793 9.85784 5.87348 9.76354 5.94835C9.66925 6.02321 9.59062 6.11591 9.53216 6.22116L7.83037 9.28375L6.85641 8.30979C6.77185 8.22224 6.6707 8.15241 6.55886 8.10436C6.44703 8.05632 6.32674 8.03103 6.20503 8.02998C6.08331 8.02892 5.96261 8.05211 5.84995 8.0982C5.7373 8.14429 5.63495 8.21236 5.54888 8.29843C5.46281 8.3845 5.39475 8.48684 5.34866 8.5995C5.30257 8.71215 5.27937 8.83286 5.28043 8.95457C5.28149 9.07629 5.30678 9.19657 5.35482 9.30841C5.40286 9.42025 5.47269 9.5214 5.56024 9.60596L7.39358 11.4393C7.56683 11.613 7.80058 11.7083 8.04166 11.7083L8.16862 11.6992C8.30912 11.6795 8.44314 11.6275 8.56014 11.5473C8.67713 11.467 8.7739 11.3607 8.84283 11.2367L11.1345 7.11171C11.193 7.0065 11.2302 6.89079 11.244 6.7712C11.2578 6.65161 11.2479 6.53047 11.2149 6.41471C11.1818 6.29894 11.1263 6.19082 11.0515 6.09651C10.9767 6.00219 10.884 5.92354 10.7788 5.86504Z" fill="white"/>
</svg>
