<svg width="19" height="25" viewBox="0 0 19 25" fill="none" xmlns="http://www.w3.org/2000/svg">
<path fill-rule="evenodd" clip-rule="evenodd" d="M18.1832 19.25C15.4224 12.3555 12.2 10.5384 12.2 7.1V3.05H12.875C13.054 3.05 13.2257 2.97888 13.3523 2.8523C13.4789 2.72571 13.55 2.55402 13.55 2.375V1.025C13.55 0.845977 13.4789 0.674288 13.3523 0.547701C13.2257 0.421114 13.054 0.349998 12.875 0.349998H6.12499C5.94597 0.349998 5.77428 0.421114 5.6477 0.547701C5.52111 0.674288 5.44999 0.845977 5.44999 1.025V2.375C5.44999 2.55402 5.52111 2.72571 5.6477 2.8523C5.77428 2.97888 5.94597 3.05 6.12499 3.05H6.79999V7.1C6.79999 10.5384 3.57754 12.3555 0.816793 19.25C-0.0620569 21.4437 -2.31926 24.65 9.49999 24.65C21.3192 24.65 19.062 21.4437 18.1832 19.25ZM16.0002 21.6138C15.0525 21.8973 13.1666 22.22 9.49999 22.22C5.83339 22.22 3.94744 21.8973 2.99974 21.6138C2.66359 21.5139 2.53264 21.1238 2.65144 20.766C2.94844 19.8615 3.50869 18.2982 4.55629 16.5527C7.11589 12.288 9.77134 17.2236 11.9813 17.2236C14.1912 17.2236 13.5851 15.1163 14.4437 16.5527C15.2333 17.8819 15.8722 19.2951 16.3485 20.766C16.4673 21.1238 16.3364 21.5126 16.0002 21.6138Z" fill="white"/>
</svg>
