<svg width="35" height="35" viewBox="0 0 35 35" fill="none" xmlns="http://www.w3.org/2000/svg">
<rect width="35" height="35" rx="17.5" fill="#DFDFDF"/>
<path d="M18 28C12.49 28 8 23.51 8 18C8 12.49 12.49 8 18 8C23.51 8 28 12.04 28 17C28 20.31 25.31 23 22 23H20.23C19.95 23 19.73 23.22 19.73 23.5C19.73 23.62 19.78 23.73 19.86 23.83C20.27 24.3 20.5 24.89 20.5 25.5C20.5 26.163 20.2366 26.7989 19.7678 27.2678C19.2989 27.7366 18.663 28 18 28ZM18 10C13.59 10 10 13.59 10 18C10 22.41 13.59 26 18 26C18.28 26 18.5 25.78 18.5 25.5C18.4969 25.3703 18.4472 25.2461 18.36 25.15C17.95 24.69 17.73 24.1 17.73 23.5C17.73 22.837 17.9934 22.2011 18.4622 21.7322C18.9311 21.2634 19.567 21 20.23 21H22C24.21 21 26 19.21 26 17C26 13.14 22.41 10 18 10Z" fill="#464646"/>
<path d="M12.5 19C13.3284 19 14 18.3284 14 17.5C14 16.6716 13.3284 16 12.5 16C11.6716 16 11 16.6716 11 17.5C11 18.3284 11.6716 19 12.5 19Z" fill="#464646"/>
<path d="M15.5 15C16.3284 15 17 14.3284 17 13.5C17 12.6716 16.3284 12 15.5 12C14.6716 12 14 12.6716 14 13.5C14 14.3284 14.6716 15 15.5 15Z" fill="#464646"/>
<path d="M20.5 15C21.3284 15 22 14.3284 22 13.5C22 12.6716 21.3284 12 20.5 12C19.6716 12 19 12.6716 19 13.5C19 14.3284 19.6716 15 20.5 15Z" fill="#464646"/>
<path d="M23.5 19C24.3284 19 25 18.3284 25 17.5C25 16.6716 24.3284 16 23.5 16C22.6716 16 22 16.6716 22 17.5C22 18.3284 22.6716 19 23.5 19Z" fill="#464646"/>
</svg>
