<svg width="37" height="37" viewBox="0 0 37 37" fill="none" xmlns="http://www.w3.org/2000/svg">
<rect width="37" height="37" rx="18.5" fill="#212B51"/>
<path d="M18.5 22.4583C16.3229 22.4583 14.5417 20.7388 14.5417 18.6362V13.6138C14.5417 11.5112 16.3229 9.79166 18.5 9.79166C20.6771 9.79166 22.4583 11.5112 22.4583 13.6138V18.6362C22.4583 20.7388 20.6771 22.4583 18.5 22.4583Z" fill="black" fill-opacity="0.16"/>
<path d="M18.5 27.2083V24.8333M18.5 24.8333C16.8203 24.8333 15.2094 24.1661 14.0216 22.9783C12.8339 21.7906 12.1667 20.1797 12.1667 18.5M18.5 24.8333C20.1797 24.8333 21.7906 24.1661 22.9783 22.9783C24.1661 21.7906 24.8333 20.1797 24.8333 18.5M18.5 22.4583C16.3229 22.4583 14.5417 20.7388 14.5417 18.6362V13.6138C14.5417 11.5112 16.3229 9.79166 18.5 9.79166C20.6771 9.79166 22.4583 11.5112 22.4583 13.6138V18.6362C22.4583 20.7388 20.6771 22.4583 18.5 22.4583Z" stroke="white" stroke-width="1.5" stroke-linecap="round" stroke-linejoin="round"/>
</svg>
