<svg width="82" height="82" viewBox="0 0 82 82" fill="none" xmlns="http://www.w3.org/2000/svg">
<rect width="82" height="82" rx="41" fill="black"/>
<path d="M25.25 33.6875C25.25 32.3448 25.7834 31.0572 26.7328 30.1078C27.6822 29.1584 28.9698 28.625 30.3125 28.625H51.6875C53.0302 28.625 54.3178 29.1584 55.2672 30.1078C56.2166 31.0572 56.75 32.3448 56.75 33.6875V48.3125C56.75 49.6552 56.2166 50.9428 55.2672 51.8922C54.3178 52.8416 53.0302 53.375 51.6875 53.375H30.3125C28.9698 53.375 27.6822 52.8416 26.7328 51.8922C25.7834 50.9428 25.25 49.6552 25.25 48.3125V33.6875ZM30.3125 30.875C29.5666 30.875 28.8512 31.1713 28.3238 31.6988C27.7963 32.2262 27.5 32.9416 27.5 33.6875V35.375H54.5V33.6875C54.5 32.9416 54.2037 32.2262 53.6762 31.6988C53.1488 31.1713 52.4334 30.875 51.6875 30.875H30.3125ZM27.5 48.3125C27.5 49.0584 27.7963 49.7738 28.3238 50.3012C28.8512 50.8287 29.5666 51.125 30.3125 51.125H51.6875C52.4334 51.125 53.1488 50.8287 53.6762 50.3012C54.2037 49.7738 54.5 49.0584 54.5 48.3125V37.625H27.5V48.3125ZM46.625 44.375H50C50.2984 44.375 50.5845 44.4935 50.7955 44.7045C51.0065 44.9155 51.125 45.2016 51.125 45.5C51.125 45.7984 51.0065 46.0845 50.7955 46.2955C50.5845 46.5065 50.2984 46.625 50 46.625H46.625C46.3266 46.625 46.0405 46.5065 45.8295 46.2955C45.6185 46.0845 45.5 45.7984 45.5 45.5C45.5 45.2016 45.6185 44.9155 45.8295 44.7045C46.0405 44.4935 46.3266 44.375 46.625 44.375Z" fill="white"/>
</svg>
